<?xml version="1.0" encoding="UTF-8"?>
<svg id="Layer_1" data-name="Layer 1" xmlns="http://www.w3.org/2000/svg" viewBox="0 0 1962.43 1851.3">
  <defs>
    <style>
      .cls-1 {
        fill: #fff;
      }
    </style>
  </defs>
  <path d="M334.1,1719.6c-6.07,7.02-17.13,10.77-19.18,20.92-.89,4.42-.95,9.2-4.95,12.5s-3.41,8.15-4.18,12.93c-2.06,12.81.67,24.56,13.12,30.01,9.32,4.07,18.66,1.71,28.08,1.95s17.67,1.85,26.93-.91c19.6-5.84,39.15-9.29,59.37-12.94l71.74-12.95,80.08-15.04,75.91-12.11,109.08-17.11,183.07-25.61,88.05-11.89,89.24-10.86,136.77-15.19,61.99-6.03,39.85-4,64.34-5.75,54.57-4.06,79.43-4.95c25.17-1.57,49.38-3.11,74.49-5.97l61.62-7.03c20.33-2.32,18.43-18.01,22.75-18.16,7.37-.26,16.19-1.05,23.67-1.69l19.05-1.63c8.48-.72,16.63-1.65,24.99-2.83,6.15-.87,11.01-5.16,16.37-6.74,10.37-3.07,22.03-.18,32.52-5.49,17.45-8.84,30.2-2.9,37.88-12.79,3.99-5.14,5.31-10.75,3.77-17.26-3.33-14.05-25.8-15.41-37.71-15.27s-24.23.15-36.68-.73c-20.91-1.46-41.17,2.45-62.12,2.05l-19.36-.37-35.85,1.27-169.81,9.28-149.91,10.86-83.48,7.09s.48-1.1.7-1.59l1.48-.69,1.25-.58,1.39-.66,1.45-.67,1.38-.65c14.15-6.69,16.16-13.97,21.46-24.37l.95-1.87c9.62-18.85,17-43.37,22.95-63.19.18-.59,1.53-1.81,1.6-1.68,12.44,24.71,29.38,46.2,51.58,62.93,2.55,1.92,7.85,4.25,11.28,4.86l1.62.29,20.36,4.32c7.02,1.49,15.2,1.07,20.57-3.84l6.02-5.51,8.7.31c3.77-.88,5.94-.7,8.83,1.29,13.06,9.01,33.95,16.43,48.21,5.42,11.16-8.63,19.27-20.4,25.9-32.77l14.77-27.54c1.03-1.92,2.71-3.26,4.78-3.85l35.94-10.26c6.12-1.75,16.33-6.41,16.69-4.21l6.86,42.66c.54,3.34,3.02,6.88,4.59,9.38,4.64,7.38,11.4,8.38,19.09,9.91s15.63,6.34,23.55,1.63c11.85-7.03,18.27,1.71,31.64-16.06,7.46-9.92,4.75-15.37,8.72-12.98,2.74,1.65,6.8,4.35,9.85,5.8,10.97,5.22,20.28-1.27,28.57,3.55,9.78,5.69,22.1,6.16,29.52-2.68l6.85-8.15c5.19-6.17,9.81-11.62,12.67-19.29,6.17-16.5,10.92-32.75,16.21-49.71l26.07-83.65,15.47-48.89,11-36.96c3.42-11.5,3-29.66-8.15-36.78-14.53-9.27-30.77-4.92-46-2.13-9.99,1.83-18.24.45-25.77,9.55-3.51,4.25-8.45,8.79-11.09,14.6-5.06,11.12-9.42,21.99-13.14,33.83l-25.78,82.07-23.23,74.91-3.48,8.67c.46,2.21-.32-.43-.7-1.76l-.64-10.1c-.04-.57-.05-1.27-.06-1.95l-.02-2.05-.03-2.02-.03-2.02-.04-2.01-.04-1.99-.04-2.02-.07-1.97-.11-1.81-.11-1.53-.09-1.23-.08-1.17-.11-1.41-.14-1.79-.17-2.07c-.05-.61-.08-1.33-.08-1.94v-2.03s0-1.98,0-1.98v-1.98s.05-2.01.05-2.01l.03-2.08-2.46-68.87c-.79-22.2-2.99-43.55-6.02-65.45l-.24-1.73-.26-1.86-.27-1.87-.41-1.58-.58-1.48-.56-1.43-.55-1.42-.55-1.44-.54-1.43-.53-1.39c-.3-.78-1.14-1.68-1.76-2.29l-1.01-.99-1.01-.99-1-.98c-.99-.97-1.18-1.11-2.29-1.73l-1.29-.72-1.51-.4-1.59-.42-1.59-.41c-.56-.15-1.06-.28-1.56-.38l-1.69-.34-1.8-.38-1.76-.37c-.72-.15-2.6-.36-3.19-1.91l27.58-7.24,30.73-7.34,61.74-12.84c17.48-3.64,12.3-10.94,27.65-16.9,6.74-2.61,15.6-7.54,16.56-15.45l2.55-21.21c1.8-15.01-8.01-24.3-20.48-26.11-3-.44-6.23-1.24-9.53-1.37-14.55-.55-30.52,2.26-44.62,4.57-5.72.94-4.59-1.18-2.5-.77l1.82-.67c.42-.16,1.24-.49,1.6-.59,18.76-5.32,38.15-10.38,55.03-20.31.29-.17,1.15-.52,1.46-.65l1.36-.55c4.51-1.81,10.71-6.57,14.71-9.75,4.44-3.52,4.7-9.82,7.24-14.57,4.28-8.01,8.11-15.55,5.13-25.04-1.12-3.57-3.01-8.12-6.44-10.46-4.53-3.09-10.44-5.82-15.88-6.02l-22.65-.84c9.76-2.38,19.54-4.46,30.01-6.21,4.74-.8,9.74-.79,14.31-1.89,14.88-3.56,25.44-15.4,26.28-30.83.14-2.59,3.13-5.83,4.86-7.87,6.45-7.63,7.1-17.73,1.4-25.64-4.26-5.92-9.54-9.74-15.67-13.58-8.81-5.52-18.33-9.33-29.45-7.67-19.47,2.91-38.21,7.16-57.55,11.45-21.44,4.75-42.27,7.48-64.13,9.2-23.52,1.86-29.32,39.26-31.28,35.9l-1.32-2.26c-1.27-2.17-32.73-18.13-29.91-17.11l-2.15-.78-9.8-5.77c-14.38-8.46-50.66.95-67.29,4.87-8.96,2.11-17.87,3.07-26.99,4.28l-38.14,5.08c-12.33,1.64-24.38,33.32-28.23,44.92l-1.13-1.06.94-4.6c3.04-14.94,3.61-29.45-.6-43.93-3.61-12.45-8.13-23.63-13.94-35.2-5.36-10.68-10.19-21.7-20.77-28.28-5.32-3.31-11.32-5.78-16.29-9.86-6.98-5.73-11.24-24.75-24.96-31.98s-22.71-5.79-28.4-17.7c-5.63-11.78-16.24-19.15-29.28-20.58-28.13-3.09-16.28,1.77-33.17-11.81-13.87-11.14-30.88-16.81-48.47-12.54-15.61,3.79-36.58,25.74-48.42,37.43l-9.58,9.47c-4.3,4.24-8.33-1.9-11.63-4.2l-133.54-93.09c-1.55-1.08-.85-3.08-.31-3.5,8.22-6.42,16.49-14.1,23.3-22.44l37.4-45.81,52.38-63.51c8.92-10.81,15.87-21.98,22.93-34.07,12.57-21.52,18.5-45.36,18.84-70.41.12-9.09.12-45.92,8.39-49.16,5.76,1.4,10.27-.57,14.32-3.78,10.27-8.14,17.75-17.44,24.48-28.64,10.5-17.48,17.64-35.33,21.29-56.5,7.15,14.47,7.69,32.72,3.48,48.35-1.48,5.5-3.69,11.39-1.26,16.93,2.17,4.95,8.99,5.24,12.92,1.71,13.58-12.16,22.51-27.71,29.54-44.57,10.66-25.59,14.12-52.61,9.19-80.14-1.8-10.07-4.81-19.4-7.81-29.21-.16-.51-.6-2.23-.17-1.98.28.16,1.88.68,2.16.99,29.08,31.62,18.37,54.71,34.36,54.6,3.45-.02,7.68-2.82,8.85-6.84,10.05-34.35,2.63-77.4-13.03-109.53-13.41-27.52-27.31-37.26-51.45-55.48,12.07-.34,19.06,4.02,31.09,2.08,4.8-.77,8.61-6.86,6.37-12.05-4.45-10.3-13.16-18.45-22.48-25.27-31.03-22.73-62.84-32.61-100.86-36.12-.53-.05-1.64-.67-1.34-1.07l1.27-1.73c18.54-25.36,34.75-57.4,20.56-88.5-2.53-5.56-8.19-9.15-14.43-7.06-9.48,3.17-1.2,17.91-12.73,31.34-16.21,18.89-54.27,31.05-78.96,32.45-8.66.49-17.56.91-26.11-.12-18.72-2.24-36.31-6.2-54.75-9.95-36.85-7.5-71.43-10.03-109.33-7.58-34.73,2.25-68.25,10.87-100.1,24.61-23.93,10.33-53.24,31.26-72.95,50.19-6.3-19.41-2.94-36.83,2.8-55.06,1.19-3.77.99-7.48-1.92-10.27-7.63-7.3-18.64.67-24.96,7.41-20.7,22.06-32.97,54.68-22.43,83.97-21.42,1.05-42.82,12.94-57.16,27.21-7.11,7.08-29.29,29.38-19.03,39.11,2.24,2.13,7.6,2.89,10.75,1.78l28.63-10.07c-21.75,28.35-33.67,45.5-38.45,79.79-1.09,7.8,2.65,13.09,8.3,17.02.8,15.86,1.82,32.68,4.04,48.74.85,6.14,2.14,12.97.77,18.8-2.63,11.15-11.09,19.33-19.43,26.21-16.65,13.75-29.21,7.53-36.45,12.69-4.02,2.86-3.74,10.05-1.02,13.39,10.77,13.22,42.34,14.1,58.86,13.29-2.78,22.4-1.87,43.89,2.45,65.19l2.25,11.11-43.53-30.48-27.05-19.29-78-54.65-68.09-47.9c-11.7-8.23-.88-8.07-25.37-25.57-6.47-4.62-11.56-9.8-15.52-16.67-4.92-8.53-8.8-17.37-11.03-27.01-1.56-6.77.1-12.83,3.6-18.69l41.16-68.88,24.53-40.66,33.13-55.76c3.2-5.39,6.21-11.46,7.16-17.72,1.13-7.43-2.8-16.55-8.68-20.97-7.68-5.78-16.53-8.8-24.74-13.61-15.55-9.12-31.24-16.17-48-22.99-13.03-5.3-25.21-11.06-38.97-13.76-8.88-1.74-17.98,1.1-23.52,8.5-12.15,16.2-22.85,32.83-33.9,49.87l-14.96,23.07-42.06,65.95-42.33,65.44-38.23,59.81-18.61,28.59-97.83,152.96-20.29,31.89c-4.62,7.26-7.89,15.34-5.38,24.23,1.39,4.91,5.66,8.13,9.1,11.71,13.92,14.51,29.08,26.2,46.49,36.32l43.01,25.02c12.5,7.27,27.48,2.98,35.45-8.6l35.04-50.89,50.67-73.17,28.89-42.19c4.48-6.55,10.44-11.28,18.55-12.76,9.8-1.79,20.68-3.63,30.56-1.2,8.64,2.12,22.59,20.25,36.02,21.35,5.24.43,9.89,1.11,14.25,4.11l21.27,14.66,24.35,16.81,60.16,41.83,67.61,47.15,21.81,15.49,46.93,32.76,30.39,21.15c1.03,1.81-1.59,5.2-2.4,6.8-3.42,6.74-7.22,12.31-14.08,16.42-31.55,18.93-62.56,19.99-98.34,22.83-10.99.87-21.55,2.52-32.51,3.96-21.02,2.77-40.69,8-60.35,15.74-15.34,6.04-29.6,12.4-43.58,21.47-24.37,15.82-45.88,35.11-64.85,57.1-21.95,25.43-38.21,53.12-48.99,84.96-4.75,14.03-7.35,28.02-10.52,42.66-2.74,12.64-.92,11.62-12.9,22.03-23.84,20.71-50.31,36.62-55.2,70.56-.95,6.58.5,13.72-1.17,20.05-5.88,22.28-22.56,30.93-24.36,50.99l-6.87,8.94c-4.46,5.8-6.26,13.14-10.13,18.9-8.53,12.68-16.93,24.18-21.89,38.99-2.16,6.44-6.46,12.98-6.83,20.03-.99,19.2,8.19,35.77,21.33,48.77,9.92,9.82,19.5,18.8,32.21,24.94,11.97,5.79,24.87,7.89,37.89,11.01l37.92,9.07,17.89,4.77c-8.11,5.11-15.75,10.88-24.8,14.69-15.26,6.43-30.78,11.4-47.32,12.3-27.74,1.5-13.01,4.53-39.08-7.42.26-8.28-4.22-16.16-12.17-18.51-18.71-5.53-23.85,5.28-30.2,9.8-7.8,5.55-16.84,9.74-21.52,18.91-6.88,13.5-1.31,22.15-4.43,37.09-2.11,10.14,2.35,20.34,9.67,27.19,5.61,5.25,13.12,7.7,18.87,12.33,12.47,10.06,25.53,17.12,41.65,19.73,6.27,1.01,12.59,2.23,19.15,2.37,27.33.55,51.8-.94,76.94-11.76l23.64-10.17c-14.36,14.14-41.06,27.27-56.38,41.25l-26.69,24.36c-7.21,6.58-11.15,15.42-16.22,23.71-5.4,8.82-10.93,17.71-10.58,28.54.24,7.44,1.83,15.54,5.25,22.55,4.86,9.97,13.18,20.12,23.49,24.7s20.1,7.69,29.61,13.66c17.65,11.08,49.82,23.67,71.01,26.72l-20.02,6.59c-19.22,6.33-38.66,10.11-58.94,11.75-8.55.69-15.79-2.49-21.87-8.08-7.09-6.52-16.12-9.94-24.74-4.96l-11.6,6.69c-6.9,3.98-14.01,7.21-18.01,14.09-4.89,8.41-2.05,16.41-.68,24.74,1.44,8.79-.25,17.08,5.79,24.7,7.85,9.92,18.18,16.36,28.16,24.03,16.69,12.82,35.22,20.1,56.96,18.37s65.06-9.05,85.79-16.67c28.78-10.58,64.58-33.98,85.7-56.25l-1.37,14.52c-.87,9.25,4.25,19.25,13.09,22.39,4.21,1.5,8.69,2.18,13.09,3.14,4,8.06,11.76,9.64,21.48,10.88l-67.3,12.07c-26.87,4.82-52.56,11.17-78.31,19.54-8.94,2.91-10.56,10.04-16.19,16.55Z"/>
  <g>
    <g>
      <g>
        <g>
          <path d="M724.5,640.43c-9.57.32-33.1,43.09-40.75,49.31l-9.88,8.04c1.07,2.31,2.02,5.2,3.41,7.12,26.16,36.26,50.84,72.73,75.32,110.36l53.23,81.79,37.08,56.07,26.57,42.39,34.28,56.48,7.67,12.46-7.58,3.15-6.49-11.09-22.95-37.97-52.33-81.63-92.77-137.2-24.43-36.7-26.23-37.63c-6.33-9.09-12.11-17.53-19.54-26.05-28.24,10.14-45.66,18.85-74.16,27.59-5.58,1.71-10.67,2.67-16.58,1.24,8.92-4.79,16.93-7.88,25.71-11.01,4.08-1.46,8.03-2.36,11.41-5.84l-42.3,5.88c-25.61,3.56-50.36,8.53-74.71,17.38-19.42,7.06-52.83,23.82-66.05,41.09,34.01-5.13,58.44.29,88.73,14.17-27.81-7.23-59.85-12.05-87.8-5.23-7.71,1.88-14.75,5.64-20.46,11.33-14.45,14.39-26.65,30.1-37.28,47.63s-16.68,34.97-22.37,53.77l-5.66,18.73c8.54-5.8,15.49-11.11,23.17-17.36,14.03-11.4,28.62-21.3,43.73-31.24,5.7-3.75,26.93-17.75,31.36-10.85,1.07,1.66.3,4.89-1.65,6.58-9.15,7.94-18.34,14.71-28.1,22.01l-57.8,43.21-48.28,37.4-12.3,9.91c-13.78,11.1-24.39,26.18-24.23,44.76,13.4-10.56,25.56-19.41,38.76-28.14l22.45-14.85c21.81-14.43,44.15-26.88,67.77-38.09,9.34-4.43,17.65-9.12,27.83-12.36-8.13,5.62-16.33,9.6-24.62,14.62l-28.14,17.04c-21.16,12.81-40.62,26.53-60.98,40.95-29.28,20.74-55.71,43.78-82.31,67.25,7.83-11.22,23-31.53,21.83-43.81-2.55-26.7,12.38-45.29,31.45-61.49l28.66-24.35c3.52-2.99,5.53-7.2,6.5-11.59l7.03-31.88c10.93-49.59,39.23-90.08,75.6-124.5,32.18-30.46,70.29-52.05,113.7-62.09,15.07-3.49,29.79-6.2,45.18-7.6l40.81-3.74c19.01-1.74,37.1-4.97,54.77-12.07,23.12-9.29,33.55-17.34,43.23-41.79.49-1.24-2.03-4.13-3.25-4.99l-114.05-79.8-162.49-113.24c-15.68-10.93-14.6-2.84-22.54-6.57-16.13-7.56-20.34-19.81-37.32-20.92-15.09-.99-36.37.58-46.96,12.94-7.62,8.89-13.7,18.03-20.32,27.77l-49.67,73.05-15.16,21.11-26.44,38.56c-3.57,5.2-7.36,9.82-11.44,14.66-4.67,5.54-12.94,7.37-19.69,3.35l-49.29-29.36c-16.44-9.79-30.65-22.26-43.02-36.71-4.08-4.76-.27-13.41,2.57-17.84l28.49-44.39,15.35-24,76.05-118.65,50.9-79.11,32.05-50.28,38.83-60.05,18.53-29.31,26.11-39.99,18.64-27.49c2.19-3.23,6.18-8.06,10.2-8.41,9.45-.81,18.07,2.64,26.53,6.12l29.14,11.99c11.43,4.7,21.92,9.98,32.5,16.31,7.57,4.53,15.12,8.21,23.04,12.05,6.27,3.04,9.69,10.11,7.02,16.85-2.43,6.15-5.42,12.16-8.82,17.88l-22.02,37.15-64.63,107.05c-11.76,19.48-17.73,30.11-8.44,53.89,5.51,14.12,13.68,28.16,26.78,35.95,8.87,5.27,13.5,11.25,18.62,19.87,3.75,6.31,12.56,9.82,18.62,14.1l76.86,54.3,41.78,29.05,59.16,42,41.49,28.64c.68.47,2.74,1.01,2.76.61s.12-1.54-.03-2.28c-7.77-38.61-12.81-61.94-7.23-104.15-19.29,3.55-44.58,2.8-61.88-7.53,9.32-1.96,17.35-1.91,25-5.67,17.68-8.69,37.04-29.79,34.83-50.56l-4.14-38.91c-1.24-11.62-.77-23.05,1.86-34.35l4.81-20.58c.1-.42.02-2.07-.22-1.89-.36.28-1.72,1.2-2,1.67l-5.68,9.67c-2.89,4.92-4.68,9.42-8.42,13.69.24-10.22,3.06-18.63,6.27-27.66,6.35-17.88,15.88-33.49,28.21-47.81l19.08-22.15c-18.84-.27-39.07,6.95-54.65,15.06-.47.25-2.47-.08-2.67.17.98-1.26,1.3-7.61,17.85-24.5,16.94-17.28,39.51-27.56,63.94-26.67l1.14-1.3c-26.57-56.47,30.49-101.62,26.87-89.83l-3.31,10.78c-5.89,19.17-3.8,42.59,5.18,60.61l2.09.61c18.03-17.9,37.05-34.25,59.23-46.63,14.44-8.06,28.57-14.98,44.27-19.91,14.87-4.67,29.29-8.61,44.73-11.24,34.78-5.92,69.31-5.56,104.31-1.01,20.14,2.62,38.78,6.91,58.49,10.7,9.62,1.85,18.74,3.74,28.71,4.71,31.61,3.08,63.28-3.97,91.09-18.79,15.93-8.49,30.37-23.28,29.36-42.09-.55-10.32,7.45,7.14,7.26,18.58-.21,12.46-3.35,23.69-8.73,34.42-9.86,19.67-16.64,24.57-29.76,41.05-.41.47-1.19,1.18-.87,1.2l2.49.14c14.73.83,28.76.37,43.07,3.34,26.32,5.45,50.76,14.78,72.56,30.41,7.05,5.05,14.29,12.44,18.3,19.15,3.24,5.42-9.2,2.07-9.54,2-16.87-3.38-40.05-5.46-57.59-4.41-1.73.71-1.38.87.25,1.25l14.5,7.06c23.39,11.38,45.05,27.07,60.21,48.7,6.64,9.47,10.98,20.17,14.96,31.04,10.14,27.67,11.38,57.49,5.56,85.53-.29,2.8-3.02-7.52-2.46-4.88-2.58-12.2-7.89-23.51-15.7-34.49-17.94-25.21-58.03-52.77-52.03-44.7,2.83,3.8,5.51,7.44,7.81,11.47l7.37,12.91c20.07,35.19,24.75,76.59,11.04,115.01-5.99,16.79-14.08,31.57-26.24,44.78-.73.77-1.02,1.05-1.03.66-.01-.48-.12-2.37,0-2.79l3.54-13.11c5.58-20.65-7.85-57.82-20.61-75.3-.28-.39-1.19,1.08-1.2,1.56l-.03,2.18c-.24,17.02-2.33,33.1-7.18,49.32l-.5,1.67c-4.15,13.87-11.14,25.77-19.31,37.66-5.49,7.98-12.3,14.21-19.45,20.55-.16,0-.65.08-1.17.14,7.07-15.04,7.5-20.03,10.7-35.85l.32-1.6.3-1.52.17-1.62.2-1.84.22-1.97.59-4.87c.66-1.33.15-.91-1,.27-5.65,14.97-11.91,29.27-20.79,42.51-31.04,46.23,6.56,78.2-40.61,145.46-18.12,25.84-38.48,48.86-58.42,73.36l-38.12,46.85c-8.41,10.34-24.94,29.72-38.29,33.41,1.22,4.2,4.35,8.39,8.48,11.32l48.46,34.41,100.1,69.93c.94.66,3.28.81,4,.15l11.2-10.3c12.27-11.28,23.47-23.07,36.61-33.23,19.48-15.07,41.42-7.02,57.88,8.6,13.1,12.43,19.11,4.61,40.57,11.27,14.03,4.35,14.16,17.15,23.88,25.24,8.9,7.4,24.58,2.22,36.77,27.18,16.29,33.35,27.18.58,53.46,69.05,7.03,18.3,8.65,38.47,3.24,57.34-.08.29-.65,1.77-.68,1.78-.05.02-1.4-1.28-1.67-1.68l-6.34-9.27-1.32-24.87c-.35-6.59-2.59-12.77-5.46-18.64-4.18-8.55-7.73-16.99-11.05-25.88-2.75-7.37-7.5-12.89-13.99-16.98l-9.61-6.07c-20.99-13.25-18.57-31.43-28.12-35.69-17.97-8-25.76-2.3-31.58-14.73-7.72-16.48-15.23-23.66-34.87-19.61-18.26,3.77-20.52-17.93-36.97-23.33-7.13-2.34-18.44-.27-24.63,4.68-19.03,15.23-35.64,32.3-51.37,50.44-5.04,5.81-7.47,12.2-7.35,20.14l35.34,19.67c7.75-15.57,15.74-21.65,27.51-34.07l11.28-11.9c5.78-6.09,20.21-15.46,15.75-9.67l-1.99,2.58-6.41,8.57c-6.5,8.7-12.44,17.21-19.51,25.55-5.42,6.4-9.51,13.5-12.96,21.1-1.36,2.98-1.31,6.52.45,9.33,7.72,12.3,13.11,9.56,18.93,17.63.25.35-.53.77-1.25,1.24-4.61-2.41-8.97-4.57-13.12-7.22-3.07-1.96-4.17-5.81-8.45-7.28l3.66,18.12c2.84,14.05,13.17,21.73,25.7,27.92l1.69.83c2.55,1.26,2.06-16.76,4.94-24.76,3.95-11,12.62-20.12,20.11-29.16,6.18-7.46,31.7-36.16,38.42-38.02.26-.07.82-.16.79.11-.05.39-.46,2.08-.75,2.48l-25.97,35.44-15.58,20.98c-1.65,2.22-6.96,10.68-6.24,14.68,7.49,4.18,15.76,13.61,22.35,16.41,1.52.64-1.43,6.31-20.13-10.4l-1.87-1.67c-1.86-1.66-1.37,15.15,1.39,22.28,1.92,4.95,7.37,8.56,11.79,10.84l8.86,4.58,2.98,1.46c.63.31-1,1.28-2.03,1.95-11.52,7.47-21.83,16.41-32.27,25.42l-13.23-10.41-28.45-23.34c-1.17-.96-2.75-3.94-3.77-4.61-17.76.72-27.62,4.81-45.62-4.45l6.69,8.47,6.59,8.44-2.64.37c-13.1,1.84-25.67,3.82-38.53,6.64l-5.83,1.28-3.11.74c-4.07-14.4-7.36-29.23-12.95-43.69l-.63-1.64c-.19-.49-.45-1.13-.61-1.47l-12.01-25.59c-.19-.41-.48-.97-.69-1.37l-3.99-7.49-.73-1.39c-.13-.25-.61-.04-.68.22-.09.3-.2,1.82-.1,2.17l5.45,19.02c5.81,20.25,10.66,39.6,15.4,60.08.48,2.08-.62,4.1-2.67,4.6-1.37.33-3.1-1.73-3.62-3.56l-8.61-30.54-17.41-58.2c-4.6-15.37-11.61-28.78-19.83-42.39l-4.23-7c.42-1.96-.38.27-.94,1.75l1.05,21.09c1,20.19,1.55,39.75.73,59.94l-1.92,47.3c-.34,8.32-5.21,33.96-8.58,39.09-.4.61-4.42-1.47-4-4.32.73-4.96,2.11-10.69,2.52-15.58,2.22-26.36,2.96-51.86,3.64-78.38.53-20.77-.89-40.44-2.27-61.05-.9-13.42-1.95-25.88-7.4-38.28-.41-.58-1.53-1.58-1.38-.96.61,16.75,1.37,32.01.38,48.33l-2.1,34.88-1.85,23.14c-1.06,13.24-2.97,25.79-5.61,39.12-.03,2.09-.22,2.06-1.08-.01l2-29.24c2.25-32.87,2.57-64.96,2.19-97.9-.36-30.6-7.3-66.96-24.38-92.56-2.92-4.38-14.11-21.36-17.05-23.02-.38-.21-1.41.92-1.66,1.49-2.65,5.81-.45,13.18,1.31,19.6,7.23,26.42,10.18,52.62,8.2,79.91-2.2,30.2-7.12,59.55-13.7,89.2-2.88,12.98-5.47,25.2-9.28,37.71l-17.18,56.4-16.18,3.82c-.4.09-2.1.12-2-.26s.39-1.55.56-2.01l6.9-18.86c3.89-10.62,7.7-20.7,10.4-31.77.92-3.76-2.46-8.93-4.27-12.1l-28.48-50c-38.65-67.84-110.61-161.55-163.51-220.09l-24.34-26.94-23.82-25.98-26.94-27.17ZM171.41,518.93l34.2-51.32,18.44-27.7,32.39-49.5,18.31-28.56,27.5-42.46,47.4-75.51,30.42-49.98,50.2-83.29,21.16-35.56-14.04-7.29-31.68,51.9-34.14,53.72-27.49,44.79-42.26,66.84-63.7,100.97-33.92,53.15-38.53,59.79-36.41,56.27-9.89,14.95,8.99,6.26c.93.65,4,1.13,4.53.29l2.18-3.5,36.34-54.27ZM342.02,395.12c20.78-.17,34.97,12.47,50.59,24.5,4.41-13.6,11.16-26.46,21.9-36.02l13.89-12.36c-19.22-14.56-34.44-27.42-44.18-49.36-7.55-17.01-7.8-35.95-.23-53.04,4.86-10.97,11.09-20.55,17.35-30.82l35.11-57.63,32.56-53.42,19.96-32.17-11.02-5.32-70.62,113.69c-9.89,15.91-18.84,31.23-30.13,46.26,2.02-8.04,5.54-14.33,9.36-20.91l38.6-66.52,45.41-75.72c-4.35-3.07-8.33-5.02-13.01-5.94l-71.15,117.11-33.29,54.76-21.94,35.18-68.48,107.11-71.12,107.97-49.9,77.48c-1.29,2,1.61,5.28,3.29,5.81,2.4.75,4.88-.87,6.55-3.3l69.81-101.88,17.81-25.34c6.11-8.69,11.48-17.32,19.05-24.99-7.31,13.56-14.31,25.84-22.52,38.5l-52.68,81.19-25.79,39.77c-.1,1.59,3.1,4.19,4.46,3.81,1.27-.35,2.73-1.82,3.7-3.27l26.07-38.82,17.08-25.08,41.02-59.89,17.6-25.32c20.08-28.88,35.57-46.44,74.91-46.03ZM1008.59,269.12l-15.94,11.38c16.79,5.72,30.95,14.57,39.7,29,3.61,5.95,6.33,12.29,9.91,18.96,12.18-20.54,18.8-41.96,23.81-64.33,4.08-18.22,7.15-35.52,6.07-53.96l-9.7,15.45c-13.34,21.27-28.61,39.24-52.94,50.17,3.56-4.69,8.5-7.55,12.79-11.35,8.08-7.15,15.95-14.5,20.65-24.59-10.99,10.98-21.73,20.27-34.36,29.28ZM1213.58,365c-7.85-15.09-22.97-22.09-39.33-17.58-18.53,5.11-32.55,18.23-46.92,30.94-2.27,2.01-4.92,3.39-8.25,4.02-17.02,24.9-34.48,63.58-18.41,92.99,4.46,8.16,11.03,13.97,16.58,21.61,7.03,9.69,8.45,24.87,3.72,36.14-4.44,10.6-14.31,17.21-24.06,21.71l-22.44,10.36c.13-4.65,2.01-8.73,5.32-11.4l13.85-11.21c5.95-4.82,16.55-18.34,14.75-24.91-2.35-8.59-6.61-15.61-10.64-23.44-13.05-25.39-13.49-44.53-6.13-71.7,9.42-34.79,33.5-68.78,60.78-92.08,8.7-7.43,17.61-13.22,28.97-17.87-2.74-18.08-18.14-51.91-28.1-66.84-2.82-4.23-6.63-8.02-9.98-11.93-.43,26.22-1.59,54.94-22.69,74.17,1.01-5.07,4.33-9.33,5.94-14.4,7.22-22.59,12.02-38.5,6.42-63.98-6.21,23-15.28,42.86-28.47,61.6-8.96,12.72-18.43,24.06-30.57,33.77-5.45,4.36-10.26,9.21-16.83,12,9.63-10.82,20.37-19.41,27.85-31.62l-15.86,11.64-21.15,14.02c-1.32.87-4.17,3.39-4,4.88l2.47,22.12c-2.4,3.23-19.5-12.29-20.74-13.7-9.75-11.15-20.68-19.85-33.55-27.42-22.15-13.02-49.2-5.54-70.26,6.9-16.44,9.71-29.21,22.47-42.06,38.33-.15-16.32,6.27-32.24,17.4-44.9,9.38-10.67,19.64-19.95,31.8-27.28,13.26-7.99,28.46-10.1,43.3-12.84,11.42-10.66,18.43-25.44,25.96-38.93,3.26-5.84,6.1-10.92,8.39-17.72l-9.93,10.31c-17.29,17.93-38.07,31.17-58.44,45.39l-10.1,7.05c-17.23,12.03-32.84,25.71-45.25,42.72-4.55,6.24-8.88,11.62-14.4,17.65l5.64-19.37c6.99-24,14.71-41.81,25.88-64.49-16.91,21.24-32.56,42.83-42.19,68.03-6.52,17.06-9.45,34.41-12.67,52.39-3.21-8.89-4.65-17.14-6.25-26.61-14.77,37.85-17.06,56.23-21.57,95.03-2.17,18.67-.23,27.54-3.78,45.86l-6.41-17.85-1.36,9.47c-4-10.48-7.31-19.93-9.62-30.11l-9.95-43.86c-2.31-10.17-5.52-18.94-9.77-28.46-6.36-14.26-23.17-22.58-37.46-14.36-11.34,6.52-17.02,27.09-19.29,39.43-2.89,15.79-4.72,31.34-1.63,47.22,2.93,15.02,7.07,29.24,14.82,42.24,8.44,14.17,17.98,26.89,30.8,37.04,12.01,9.51,32.72,10.76,42.88-1.29l4.71,24.07c2.41,12.3,5.54,24.23,9.63,36.05,7.96,22.96,23.66,38.53,41.16,54.87l17.62,16.44,31.28,27.9c17.07,15.23,56.93,45,78.69,51.18,16.79,4.77,34.22,6.81,51.74,4.91,6.38-.69,14.04-4.84,18.81-8.88,9.07-7.69,15.44-17.12,22.87-26.22l25.22-30.89,42.84-52.09c20.78-25.27,41.97-63.46,43.25-95.82l1.41-35.64c1.8-45.66,32.1-107.08,17.72-134.74ZM1228.4,351.08c4.63-27.15-4.77-67.53-17.48-93.15l-3.51,20.72c-1.85,10.89-6.5,20.71-11.2,30.64,16.33,9.16,26.33,23.75,32.2,41.79ZM713.53,588.63c.88-1.34-1.16-4.59-2.53-5.42-7.36-4.47-13.51-8.9-20.5-13.78l-63.48-44.38-75.08-52-59.83-41.06-45.62-30.39-13.47-7.35-3.24,3.14c15.71,14.25,32.23,26.19,49.8,38.3l94.37,65.03,49.33,34.08,63.51,44.18,22.93,15.43,3.8-5.77ZM716.68,567.38c-1.37-11.33-3.07-21.09-5.54-31.51l-5.72-24.11-4.07,20.5-4.19,19.72c6,5.84,11.59,10.34,19.52,15.4ZM982,838.77l13.63-35.21c3.36-8.68,5.3-17.08,8.11-26.81-8.56,4.74-14.94,10.57-22.97,16.18-6.27,4.38-12.51,12.26-20.74,12.41-9.87.17-17.61-7.66-23.94-14.27-11.87-12.39-22.95-24.2-32.91-38.11l-34.3-47.88c-.39-.55-2.26-1.46-2.63-1.2l27.08,52.12c-9.79-10.27-16.17-21.85-23.68-33.7-15.17-23.91-28.59-48.02-41.71-73.1-5.2-9.94-10.47-19.04-16.9-28.07-3.51-4.92-4.23-10.16-5.7-15.88-2.08-8.07-5.11-15.74-8.59-23.66-2.51,11.66-3.28,21.84-6.92,32.08-5.07,14.28-11.4,26.8-19.11,40.72,6.62,8,13.83,15.18,21.07,22.84l43.33,45.84c22.94,24.27,43.48,49.5,64.05,75.81l47.72,61.08c5.96,7.63,50.49,70.83,47.8,80.24,2.89-10.35,4.39-21.01,5.27-32.17l1.41-17.97c1.42-18.1.53-35.53-4.04-53.06-3.98,3.65-19.41,37.02-19.63,36.52-.23-.52-1.61-2.41-1.67-3.07-.8-9.66,2.18-21.9,5.97-31.69ZM737.18,612.8l.86-11.86c-3.16,2.66-4.54,4.56-6.4,7.6l5.54,4.25ZM982.93,943.65c-1.77-13.88-10.25-22.44-15.12-33.54l-31.38-47.48-21.58-29.63c-15.17-20.82-31.53-39.92-48.33-59.39-3.5-4.06-6.74-8.46-11.9-10.08l40.64,54.15,37.7,52.37,19.76,29.35c6.68,9.93,13.29,19.24,19.66,29.37,3.31,5.26,7.05,10.41,10.56,14.88ZM1195.95,898.56c1.46-3,2.68-6.29,2.88-9.33l-15.52-10.62-25.63-18.32-61.31-42.47-24.91-17.29c.61,3.02,1.92,4.56,3.24,6.79,4.99,8.44,11.23,15,19.41,20.63l42.64,29.36,50.54,34.47c3.07,2.1,4.76,3.59,8.66,6.79ZM1157.11,937.82l2.08-4.15c.35-.7-.89-3.03-1.55-3.49l-15.79-10.96c-4.28-2.97-7.96-5.72-12.18-7.94,6.63,8.97,13.08,17.04,18.66,26.33,1.89,3.15,3.52,5.62,6.37,7.89.99-3.28,1.42-5.75,2.4-7.69ZM1227.47,952.79c-4.02,8.19-5.46,17.62-11.31,24.51-6.16,2.1-16.23-2.75-18.75-9.47-3.32-8.85-1.1-21.92,6.78-26.38l10.99-6.22c-3.45-4.23-20-10.96-24.98-11.3-6.67-.45-13.62,4.63-16.78,10.38-2.91,5.31-3.64,10.88-3.84,16.68-.93,26.12,26.28,34.82,47.31,38.66,8.97,1.64,21.09-1.18,23.73-11.82,2.37-9.54,1.11-30.79-11.31-35.34.37,4.37,0,6.57-1.83,10.32ZM1213.68,974.67l8.74-24.33c.86-2.39,2.53-4.43,4.56-7.24-.55-1.63-4.11-4.23-6.52-5.23-2.02-.84-5.18,1.16-7.47,1.77-8.31,2.23-11.98,8.18-13.14,16.41-1.28,9.07,3.17,18.21,13.83,18.61Z"/>
          <path class="cls-1" d="M716.68,567.38c-7.92-5.05-13.51-9.56-19.52-15.4l4.19-19.72,4.07-20.5,5.72,24.11c2.47,10.42,4.16,20.18,5.54,31.51Z"/>
          <path class="cls-1" d="M737.18,612.8l-5.54-4.25c1.87-3.04,3.24-4.95,6.4-7.6l-.86,11.86Z"/>
        </g>
        <g>
          <path class="cls-1" d="M342.02,395.12c-39.34-.41-54.83,17.15-74.91,46.03l-17.6,25.32-41.02,59.89-17.08,25.08-26.07,38.82c-.97,1.45-2.44,2.92-3.7,3.27-1.36.37-4.56-2.22-4.46-3.81l25.79-39.77,52.68-81.19c8.22-12.66,15.21-24.95,22.52-38.5-7.57,7.67-12.94,16.3-19.05,24.99l-17.81,25.34-69.81,101.88c-1.67,2.43-4.15,4.06-6.55,3.3-1.69-.53-4.59-3.8-3.29-5.81l49.9-77.48,71.12-107.97,68.48-107.11,21.94-35.18,33.29-54.76,71.15-117.11c4.68.92,8.66,2.87,13.01,5.94l-45.41,75.72-38.6,66.52c-3.82,6.59-7.34,12.87-9.36,20.91,11.29-15.03,20.25-30.35,30.13-46.26l70.62-113.69,11.02,5.32-19.96,32.17-32.56,53.42-35.11,57.63c-6.26,10.27-12.49,19.85-17.35,30.82-7.57,17.09-7.31,36.03.23,53.04,9.74,21.94,24.96,34.81,44.18,49.36l-13.89,12.36c-10.74,9.56-17.49,22.42-21.9,36.02-15.62-12.03-29.81-24.67-50.59-24.5ZM380.65,343.53c-9.08-19.18-14.76-36.26-15.88-56.94-8.92,16.13,3.45,47.16,15.88,56.94ZM355.02,383.99c-18.79-12.39-55.14-1.91-69.54,16.87,28.3-12.19,36.46-18.57,69.54-16.87Z"/>
          <path class="cls-1" d="M171.41,518.93l-36.34,54.27-2.18,3.5c-.52.84-3.6.36-4.53-.29l-8.99-6.26,9.89-14.95,36.41-56.27,38.53-59.79,33.92-53.15,63.7-100.97,42.26-66.84,27.49-44.79,34.14-53.72,31.68-51.9,14.04,7.29-21.16,35.56-50.2,83.29-30.42,49.98-47.4,75.51-27.5,42.46-18.31,28.56-32.39,49.5-18.44,27.7-34.2,51.32Z"/>
          <path class="cls-1" d="M713.53,588.63l-3.8,5.77-22.93-15.43-63.51-44.18-49.33-34.08-94.37-65.03c-17.57-12.11-34.09-24.05-49.8-38.3l3.24-3.14,13.47,7.35,45.62,30.39,59.83,41.06,75.08,52,63.48,44.38c6.99,4.89,13.14,9.32,20.5,13.78,1.37.83,3.41,4.08,2.53,5.42Z"/>
          <path d="M355.02,383.99c-33.09-1.7-41.25,4.68-69.54,16.87,14.4-18.78,50.76-29.26,69.54-16.87Z"/>
          <path d="M380.65,343.53c-12.43-9.78-24.8-40.81-15.88-56.94,1.12,20.68,6.8,37.77,15.88,56.94Z"/>
        </g>
      </g>
      <g>
        <path d="M880.86,962.86l-23.35-32.5-49.72-68.24-45.92-62.96-32.89-45.12c-6.66-9.14-12.36-18.17-18.57-27.54-3.1-4.68-23.54-34.06-21.44-38.82l12.16,16.23,29.07,40.05,51.48,71.27,31.69,44.51,29.29,41.79c13.92,19.86,27.4,39.29,38.2,61.34Z"/>
        <g>
          <path d="M1346.68,1001.58c-3.37,4.87,3.58,9.93-20.08,20.1l2.85-4.06c2.21-8.89,6.65-15.8,12.37-22.81,12.8-15.69,26.13-30.28,41.59-43.42,1.75-1.49,3.72-2.55,5.77-2.68-16,21.04-27.83,31.67-42.49,52.87Z"/>
          <path d="M1422.94,1002.68c-1.9-.34-4.77-1.59-7.15-3.16l7.33-9.38c2.66-3.41,5.02-6.45,9.42-9.26.2,7.87-6.75,13.47-9.6,21.8Z"/>
          <path d="M1233.72,921.07c-9.44-.52-19.13-6.44-24.58-14.17,8.81,3.91,16.5,8.27,24.58,14.17Z"/>
          <path d="M1434.59,1006.48l-8.78-2.58c3.33-1.28,5.05-1.93,8.85-3.72,1.41-.66,2.52,1.71,2.83,3.5.21,1.25-1.75,3.14-2.9,2.8Z"/>
          <path class="cls-1" d="M1213.58,365c14.38,27.66-15.92,89.09-17.72,134.74l-1.41,35.64c-1.28,32.36-22.47,70.56-43.25,95.82l-42.84,52.09-25.22,30.89c-7.43,9.1-13.8,18.52-22.87,26.22-4.77,4.04-12.43,8.19-18.81,8.88-17.53,1.9-34.95-.14-51.74-4.91-21.76-6.18-61.62-35.95-78.69-51.18l-31.28-27.9-17.62-16.44c-17.51-16.33-33.2-31.9-41.16-54.87-4.1-11.81-7.23-23.75-9.63-36.05l-4.71-24.07c-10.16,12.05-30.87,10.8-42.88,1.29-12.82-10.15-22.36-22.87-30.8-37.04-7.75-13.01-11.89-27.23-14.82-42.24-3.1-15.88-1.27-31.43,1.63-47.22,2.26-12.34,7.95-32.91,19.29-39.43,14.29-8.22,31.09.1,37.46,14.36,4.25,9.52,7.46,18.29,9.77,28.46l9.95,43.86c2.31,10.18,5.62,19.63,9.62,30.11l1.36-9.47,6.41,17.85c3.55-18.32,1.61-27.19,3.78-45.86,4.51-38.81,6.8-57.18,21.57-95.03,1.59,9.48,3.04,17.72,6.25,26.61,3.22-17.98,6.15-35.33,12.67-52.39,9.62-25.2,25.28-46.79,42.19-68.03-11.18,22.68-18.9,40.48-25.88,64.49l-5.64,19.37c5.52-6.03,9.84-11.41,14.4-17.65,12.41-17.01,28.02-30.69,45.25-42.72l10.1-7.05c20.36-14.21,41.15-27.46,58.44-45.39l9.93-10.31c-2.29,6.8-5.12,11.88-8.39,17.72-7.54,13.49-14.55,28.27-25.96,38.93-14.84,2.74-30.04,4.85-43.3,12.84-12.17,7.33-22.43,16.62-31.8,27.28-11.13,12.66-17.55,28.58-17.4,44.9,12.86-15.86,25.62-28.62,42.06-38.33,21.06-12.44,48.1-19.92,70.26-6.9,12.87,7.57,23.8,16.27,33.55,27.42,1.23,1.41,18.33,16.94,20.74,13.7l-2.47-22.12c-.17-1.5,2.68-4.01,4-4.88l21.15-14.02,15.86-11.64c-7.48,12.21-18.22,20.81-27.85,31.62,6.57-2.79,11.38-7.64,16.83-12,12.14-9.72,21.61-21.05,30.57-33.77,13.19-18.74,22.27-38.6,28.47-61.6,5.61,25.48.8,41.39-6.42,63.98-1.62,5.07-4.94,9.33-5.94,14.4,21.09-19.24,22.25-47.95,22.69-74.17,3.36,3.91,7.16,7.69,9.98,11.93,9.96,14.92,25.36,48.76,28.1,66.84-11.36,4.65-20.27,10.44-28.97,17.87-27.28,23.29-51.36,57.29-60.78,92.08-7.36,27.17-6.92,46.31,6.13,71.7,4.03,7.83,8.29,14.84,10.64,23.44,1.8,6.58-8.79,20.1-14.75,24.91l-13.85,11.21c-3.31,2.68-5.18,6.75-5.32,11.4l22.44-10.36c9.74-4.5,19.61-11.12,24.06-21.71,4.73-11.27,3.3-26.45-3.72-36.14-5.54-7.64-12.12-13.45-16.58-21.61-16.07-29.41,1.39-68.08,18.41-92.99,3.33-.63,5.97-2.01,8.25-4.02,14.37-12.71,28.39-25.83,46.92-30.94,16.36-4.51,31.49,2.48,39.33,17.58ZM935.72,367.64c12.63-6.76,28.15-7.52,39.71,1.88,11.23,9.13,18.07,22.21,21.81,35.98l3.21,11.83c7.48-10.91.98-42.79-5.04-53.02-10.73-18.25-33.63-24.44-52.32-16.59,17.31-.78,33.93,1.65,44.21,15.94-22.69-15.16-48.99-12.61-70.24,4.24-11.2,8.89-19.2,20.3-21.51,34.65-1.03,6.43-.51,13.08,4.7,18.57,7.59-23.53,11.11-40.45,35.46-53.48ZM958.91,433.39c7.52-15.9,8.64-46.92-10.11-55.17-5.59-2.46-12.5-1.13-17.7,1.76-14.31,7.96-20.05,23.19-19.09,39.02.8,13.16,6.86,24.79,20.51,28.78,10.68,3.13,21.42-3.89,26.39-14.4ZM1182.19,459.1c17.36-10.77,15.68-48.8,3.79-62.11s-26.73-11.05-43.19-6.15c6.91-7.11,16.11-8.67,25.72-9.31-12.93-8.28-34.17,6.74-39.19,16.35-2.56,4.9-4.76,9.06-7.74,13.44-3.59,5.28-6.3,10.3-7,17.12,10.79-8.06,4.91-8.41,20.69-20.25,4.65-3.49,9.06-7.15,14.44-9.55,14.28-6.38,28.13,3.55,32.05,17.38,6.02,21.27,2.84,21.21.44,43.09ZM756.99,473.02c2.76,11.71,9.12,21.73,17.57,30.47,1.65,1.71,5.49,1.88,7.11.79,1.53-1.03,3.18-5.5,2.23-7.23l-8.57-15.5c-3.46-6.27-2.02-14.39,2.17-20.17l10.21-14.08c-.98-19.29-8.07-36.81-19.41-52.7-2.57-3.6-6.88-7.82-10.63-9.87-8.44-4.61-16.85.43-21.56,7.43-6.67,9.92-10.46,20.81-7.69,32.95,1.49-7.33,9.6-30.28,21.05-24.52.77,1.6.3,5.31-.84,7-11.24,16.7-14.67,36.76-8.61,56,2.87-8.33,3.01-16.16,6.11-23.5,4.57-10.82,10.77-20.4,17.7-30.35,6.87,7.15,11.14,15.53,11.34,24.9-17.45,8.73-22.66,19.32-18.18,38.37ZM1140.49,476.48c8.65-2.62,13.05-7.57,16.21-14.99,5.62-13.22,5.48-27.61,1.51-41.66-3.11-3.74-6.71-7.95-11.31-9.69-15-5.68-39.22,24.85-30.31,52.94,3.33,10.49,14.05,16.38,23.9,13.4ZM964.71,458.98c-20.24-3.46-31.86-5.23-51.07-12.62,5.64,11.17,41.61,15.59,51.07,12.62ZM1158.09,483.3c-12.61-.24-23.17.97-33.13-5.33l-2.03.17c-.37.03-.48,1.16-.79,2.43,10.47,6.11,25.06,8.74,35.96,2.73ZM1058.03,536.52c-6.22-8.39-21.44-10.37-30.67-6.93.78,2.69,1.6,5.18,2.97,6.01s4.72.07,6.65-.05c7.14-.45,23.81,4.7,21.05.98ZM1121.76,601.27c2.36-2.49,6.15-2.27,6.91-7.28l-24.61-.42c-12.27-.21-60.35-12.64-74.7-16.74-20.82-5.96-41.05-11.55-62.34-15.77-14.89-2.95-28.95-5.09-43.34-9.77-2.83-.92-6.01-3.69-8.74-5.59l16.8-11.17c-8.05-.07-14.04.91-21.26,2.07-10.18,1.64-18.57,11.69-15.41,22.43l3.95-4.83c5.41,21.3,11.9,41.6,21.85,60.99,8.74,17.04,21.18,30.26,37.68,40.32,13.85,8.44,29.18,14.6,45.62,17.11,18.61,2.84,39.05,3.86,56.27-4.65,23.99-11.85,41.93-46.22,61.32-66.71ZM1053.57,694.3c-32.16.12-46.94,3.46-78.72-7.33.66,5.12,4.22,7.04,7.8,9.62,17.93,12.88,40.84,15.92,61,5.88,3.49-1.74,6.34-4.32,9.92-8.17Z"/>
          <path class="cls-1" d="M982,838.77c-3.79,9.79-6.77,22.02-5.97,31.69.05.66,1.44,2.54,1.67,3.07s15.65-32.87,19.63-36.52c4.57,17.53,5.46,34.96,4.04,53.06l-1.41,17.97c-.88,11.17-2.38,21.83-5.27,32.17,2.7-9.4-41.83-72.6-47.8-80.24l-47.72-61.08c-20.56-26.32-41.11-51.55-64.05-75.81l-43.33-45.84c-7.24-7.66-14.45-14.83-21.07-22.84,7.71-13.93,14.04-26.44,19.11-40.72,3.64-10.24,4.41-20.43,6.92-32.08,3.49,7.92,6.51,15.59,8.59,23.66,1.48,5.72,2.2,10.95,5.7,15.88,6.43,9.03,11.7,18.13,16.9,28.07,13.12,25.08,26.54,49.18,41.71,73.1,7.52,11.85,13.89,23.43,23.68,33.7l-27.08-52.12c.37-.26,2.24.66,2.63,1.2l34.3,47.88c9.96,13.91,21.04,25.72,32.91,38.11,6.33,6.61,14.07,14.44,23.94,14.27,8.23-.14,14.47-8.03,20.74-12.41,8.02-5.6,14.41-11.44,22.97-16.18-2.8,9.73-4.75,18.13-8.11,26.81l-13.63,35.21ZM841.64,710.94c-.23-5.01-.81-8.62-2.09-12.28l-13.18-37.82c-2.26-6.49-4.64-12.36-8.18-17.7l2.81,13.65c4.25,20.67,10.99,36.27,20.64,54.15Z"/>
          <path class="cls-1" d="M1008.59,269.12c12.63-9.01,23.37-18.31,34.36-29.28-4.71,10.09-12.57,17.45-20.65,24.59-4.29,3.79-9.23,6.66-12.79,11.35,24.33-10.93,39.59-28.9,52.94-50.17l9.7-15.45c1.07,18.44-1.99,35.75-6.07,53.96-5.01,22.37-11.63,43.8-23.81,64.33-3.58-6.66-6.3-13-9.91-18.96-8.75-14.43-22.91-23.27-39.7-29l15.94-11.38Z"/>
          <path class="cls-1" d="M1227.47,952.79c1.84-3.75,2.21-5.94,1.83-10.32,12.42,4.56,13.68,25.81,11.31,35.34-2.64,10.65-14.76,13.46-23.73,11.82-21.03-3.84-48.25-12.54-47.31-38.66.21-5.8.93-11.37,3.84-16.68,3.16-5.75,10.11-10.84,16.78-10.38,4.97.34,21.53,7.07,24.98,11.3l-10.99,6.22c-7.88,4.46-10.1,17.53-6.78,26.38,2.52,6.72,12.59,11.57,18.75,9.47,5.85-6.89,7.3-16.32,11.31-24.51Z"/>
          <path class="cls-1" d="M1195.95,898.56c-3.9-3.2-5.58-4.69-8.66-6.79l-50.54-34.47-42.64-29.36c-8.18-5.63-14.42-12.18-19.41-20.63-1.32-2.23-2.63-3.77-3.24-6.79l24.91,17.29,61.31,42.47,25.63,18.32,15.52,10.62c-.2,3.05-1.42,6.33-2.88,9.33Z"/>
          <path class="cls-1" d="M1228.4,351.08c-5.86-18.04-15.86-32.64-32.2-41.79,4.7-9.93,9.36-19.75,11.2-30.64l3.51-20.72c12.71,25.62,22.11,66,17.48,93.15Z"/>
          <path class="cls-1" d="M982.93,943.65c-3.51-4.47-7.25-9.62-10.56-14.88-6.37-10.13-12.98-19.44-19.66-29.37l-19.76-29.35-37.7-52.37-40.64-54.15c5.16,1.61,8.4,6.02,11.9,10.08,16.8,19.47,33.17,38.57,48.33,59.39l21.58,29.63,31.38,47.48c4.87,11.1,13.35,19.66,15.12,33.54Z"/>
          <path class="cls-1" d="M1213.68,974.67c-10.66-.41-15.11-9.54-13.83-18.61,1.16-8.23,4.84-14.18,13.14-16.41,2.29-.61,5.45-2.61,7.47-1.77,2.41,1,5.97,3.59,6.52,5.23-2.03,2.82-3.7,4.85-4.56,7.24l-8.74,24.33Z"/>
          <path class="cls-1" d="M1157.11,937.82c-.97,1.94-1.41,4.41-2.4,7.69-2.85-2.26-4.48-4.73-6.37-7.89-5.58-9.29-12.03-17.36-18.66-26.33,4.22,2.22,7.9,4.97,12.18,7.94l15.79,10.96c.66.46,1.9,2.79,1.55,3.49l-2.08,4.15Z"/>
          <path d="M1121.76,601.27c-19.4,20.49-37.33,54.85-61.32,66.71-17.23,8.51-37.67,7.49-56.27,4.65-16.43-2.51-31.77-8.67-45.62-17.11-16.5-10.06-28.94-23.28-37.68-40.32-9.94-19.39-16.44-39.68-21.85-60.99l-3.95,4.83c-3.15-10.74,5.23-20.8,15.41-22.43,7.22-1.16,13.21-2.14,21.26-2.07l-16.8,11.17c2.72,1.91,5.91,4.67,8.74,5.59,14.38,4.68,28.45,6.82,43.34,9.77,21.3,4.22,41.52,9.81,62.34,15.77,14.35,4.11,62.43,16.54,74.7,16.74l24.61.42c-.77,5.01-4.56,4.79-6.91,7.28ZM1101.59,599.3c-11.55-1.8-21.26-3.45-31.65-5.95l-27.79-6.69c-23.91-5.76-46.69-13.32-70.93-17.74l-56.49-10.31c5.78,15,13.18,24.89,27.58,30.92,14.56,6.1,29.23,10.09,44.57,14.52,25.2,7.27,50.71,11.29,77.05,11.72,18.55.31,28,1.31,37.65-16.47ZM1042.52,656.13c-18.64,0-35.76-2.36-53.51-5.12-10.59-1.65-20.26-4.86-31.97-4.77,23.51,18.74,72.8,27.8,99.07,16.57-3.2-4.98-7.83-6.67-13.59-6.67Z"/>
          <path d="M756.99,473.02c-4.48-19.06.73-29.64,18.18-38.37-.2-9.36-4.46-17.75-11.34-24.9-6.93,9.96-13.13,19.53-17.7,30.35-3.1,7.33-3.24,15.16-6.11,23.5-6.06-19.24-2.63-39.3,8.61-56,1.14-1.69,1.6-5.4.84-7-11.45-5.76-19.56,17.19-21.05,24.52-2.77-12.14,1.03-23.03,7.69-32.95,4.71-7,13.12-12.04,21.56-7.43,3.75,2.05,8.06,6.27,10.63,9.87,11.33,15.88,18.43,33.41,19.41,52.7l-10.21,14.08c-4.19,5.78-5.63,13.9-2.17,20.17l8.57,15.5c.95,1.72-.7,6.2-2.23,7.23-1.62,1.09-5.46.92-7.11-.79-8.45-8.73-14.82-18.76-17.57-30.47Z"/>
          <path d="M958.91,433.39c-4.97,10.51-15.71,17.52-26.39,14.4-13.65-3.99-19.7-15.62-20.51-28.78-.96-15.83,4.78-31.06,19.09-39.02,5.2-2.89,12.11-4.22,17.7-1.76,18.75,8.24,17.63,39.26,10.11,55.17ZM946.04,407.59c1.58,1.54,5.83,1.25,7.22.32,4.8-3.18,3.77-8.86,2.64-14-.94-4.25-7.27-8.62-11.19-5.14-5.08,4.51-3.74,13.87,1.33,18.82Z"/>
          <path d="M1140.49,476.48c-9.85,2.98-20.57-2.91-23.9-13.4-8.91-28.09,15.31-58.62,30.31-52.94,4.6,1.74,8.2,5.95,11.31,9.69,3.97,14.04,4.11,28.43-1.51,41.66-3.15,7.43-7.56,12.38-16.21,14.99ZM1149,440.5c6.39-1.97,7.21-9.16,6.02-14.55-.57-2.56-2.63-5.47-4.66-5.91-1.83-.4-5.49.95-6.5,2.63-1.92,3.2-2.27,6.62-2.14,10.48.11,3.32,3.49,8.52,7.29,7.35Z"/>
          <path d="M935.72,367.64c-24.34,13.03-27.86,29.95-35.46,53.48-5.21-5.49-5.73-12.14-4.7-18.57,2.31-14.36,10.3-25.77,21.51-34.65,21.24-16.85,47.55-19.4,70.24-4.24-10.28-14.29-26.9-16.72-44.21-15.94,18.69-7.85,41.59-1.66,52.32,16.59,6.02,10.24,12.52,42.11,5.04,53.02l-3.21-11.83c-3.73-13.77-10.58-26.85-21.81-35.98-11.56-9.4-27.08-8.64-39.71-1.88Z"/>
          <path d="M1182.19,459.1c2.4-21.88,5.58-21.82-.44-43.09-3.91-13.83-17.76-23.76-32.05-17.38-5.39,2.41-9.8,6.07-14.44,9.55-15.78,11.84-9.9,12.19-20.69,20.25.7-6.81,3.41-11.84,7-17.12,2.98-4.38,5.18-8.54,7.74-13.44,5.03-9.61,26.27-24.63,39.19-16.35-9.61.64-18.8,2.2-25.72,9.31,16.46-4.9,31.21-7.27,43.19,6.15s13.57,51.34-3.79,62.11Z"/>
          <path d="M1053.57,694.3c-3.59,3.85-6.44,6.43-9.92,8.17-20.15,10.04-43.06,6.99-61-5.88-3.58-2.57-7.14-4.5-7.8-9.62,31.78,10.79,46.56,7.45,78.72,7.33Z"/>
          <path d="M1058.03,536.52c2.76,3.73-13.91-1.42-21.05-.98-1.93.12-5.3.86-6.65.05s-2.19-3.32-2.97-6.01c9.23-3.44,24.45-1.46,30.67,6.93Z"/>
          <path d="M964.71,458.98c-9.46,2.96-45.43-1.46-51.07-12.62,19.21,7.39,30.83,9.16,51.07,12.62Z"/>
          <path d="M1158.09,483.3c-10.9,6.01-25.49,3.38-35.96-2.73.31-1.27.42-2.4.79-2.43l2.03-.17c9.96,6.29,20.52,5.09,33.13,5.33Z"/>
          <path d="M841.64,710.94c-9.66-17.88-16.39-33.48-20.64-54.15l-2.81-13.65c3.55,5.34,5.92,11.21,8.18,17.7l13.18,37.82c1.28,3.66,1.86,7.28,2.09,12.28Z"/>
          <path class="cls-1" d="M1101.59,599.3c-9.65,17.78-19.11,16.78-37.65,16.47-26.34-.44-51.85-4.45-77.05-11.72-15.34-4.42-30.01-8.42-44.57-14.52-14.4-6.03-21.8-15.92-27.58-30.92l56.49,10.31c24.24,4.42,47.01,11.98,70.93,17.74l27.79,6.69c10.39,2.5,20.09,4.14,31.65,5.95Z"/>
          <path class="cls-1" d="M1042.52,656.13c5.76,0,10.38,1.69,13.59,6.67-26.27,11.23-75.56,2.17-99.07-16.57,11.71-.08,21.39,3.13,31.97,4.77,17.75,2.76,34.87,5.13,53.51,5.12Z"/>
          <path class="cls-1" d="M946.04,407.59c-5.07-4.95-6.41-14.32-1.33-18.82,3.92-3.47,10.25.89,11.19,5.14,1.13,5.14,2.16,10.82-2.64,14-1.39.92-5.64,1.22-7.22-.32Z"/>
          <path class="cls-1" d="M1149,440.5c-3.79,1.17-7.18-4.03-7.29-7.35-.13-3.86.22-7.29,2.14-10.48,1.01-1.68,4.67-3.02,6.5-2.63,2.04.44,4.09,3.35,4.66,5.91,1.19,5.38.37,12.58-6.02,14.55Z"/>
        </g>
      </g>
    </g>
    <g>
      <path class="cls-1" d="M334.1,1719.6c5.64-6.51,7.25-13.64,16.19-16.55,25.75-8.37,51.44-14.72,78.31-19.54l67.3-12.07c-9.72-1.24-17.49-2.82-21.48-10.88-4.4-.96-8.88-1.64-13.09-3.14-8.83-3.14-13.96-13.14-13.09-22.39l1.37-14.52c-21.11,22.27-56.92,45.67-85.7,56.25-20.73,7.62-63.29,14.87-85.79,16.67s-40.27-5.54-56.96-18.37c-9.99-7.67-20.31-14.11-28.16-24.03-6.04-7.63-4.34-15.91-5.79-24.7-1.37-8.33-4.21-16.33.68-24.74,4-6.88,11.11-10.11,18.01-14.09l11.6-6.69c8.62-4.97,17.65-1.56,24.74,4.96,6.08,5.59,13.32,8.77,21.87,8.08,20.29-1.64,39.72-5.42,58.94-11.75l20.02-6.59c-21.19-3.05-53.37-15.64-71.01-26.72-9.51-5.97-19.27-9.07-29.61-13.66s-18.63-14.72-23.49-24.7c-3.42-7.01-5-15.11-5.25-22.55-.35-10.83,5.18-19.72,10.58-28.54,5.07-8.28,9.01-17.13,16.22-23.71l26.69-24.36c15.32-13.98,42.02-27.12,56.38-41.25l-23.64,10.17c-25.14,10.82-49.6,12.31-76.94,11.76-6.56-.13-12.88-1.35-19.15-2.37-16.12-2.61-29.17-9.67-41.65-19.73-5.74-4.63-13.26-7.08-18.87-12.33-7.31-6.85-11.78-17.04-9.67-27.19,3.11-14.93-2.46-23.59,4.43-37.09,4.68-9.17,13.72-13.36,21.52-18.91,6.35-4.52,11.49-15.33,30.2-9.8,7.95,2.35,12.42,10.23,12.17,18.51,26.07,11.95,11.35,8.92,39.08,7.42,16.54-.9,32.05-5.87,47.32-12.3,9.06-3.82,16.7-9.58,24.8-14.69l-17.89-4.77-37.92-9.07c-13.02-3.11-25.92-5.22-37.89-11.01-12.71-6.15-22.29-15.13-32.21-24.94-13.14-13-22.32-29.57-21.33-48.77.36-7.05,4.67-13.59,6.83-20.03,4.95-14.81,13.35-26.31,21.89-38.99,3.87-5.76,5.68-13.1,10.13-18.9l6.87-8.94c1.8-20.06,18.48-28.71,24.36-50.99,1.67-6.33.22-13.47,1.17-20.05,4.89-33.93,31.36-49.85,55.2-70.56,11.98-10.41,10.16-9.39,12.9-22.03,3.17-14.64,5.76-28.63,10.52-42.66,10.78-31.85,27.04-59.53,48.99-84.96,18.98-21.98,40.48-41.28,64.85-57.1,13.98-9.08,28.24-15.43,43.58-21.47,19.66-7.74,39.33-12.97,60.35-15.74,10.96-1.44,21.52-3.09,32.51-3.96,35.78-2.83,66.79-3.89,98.34-22.83,6.86-4.12,10.66-9.69,14.08-16.42.81-1.6,3.44-4.99,2.4-6.8l-30.39-21.15-46.93-32.76-21.81-15.49-67.61-47.15-60.16-41.83-24.35-16.81-21.27-14.66c-4.35-3-9.01-3.68-14.25-4.11-13.43-1.1-27.39-19.23-36.02-21.35-9.88-2.43-20.76-.59-30.56,1.2-8.11,1.48-14.07,6.21-18.55,12.76l-28.89,42.19-50.67,73.17-35.04,50.89c-7.97,11.58-22.95,15.87-35.45,8.6l-43.01-25.02c-17.41-10.12-32.57-21.81-46.49-36.32-3.43-3.58-7.71-6.8-9.1-11.71-2.51-8.89.76-16.97,5.38-24.23l20.29-31.89,97.83-152.96,18.61-28.59,38.23-59.81,42.33-65.44,42.06-65.95,14.96-23.07c11.05-17.03,21.75-33.66,33.9-49.87,5.54-7.39,14.64-10.24,23.52-8.5,13.75,2.7,25.94,8.46,38.97,13.76,16.76,6.82,32.45,13.87,48,22.99,8.2,4.81,17.06,7.82,24.74,13.61,5.87,4.42,9.81,13.54,8.68,20.97-.95,6.26-3.96,12.33-7.16,17.72l-33.13,55.76-24.53,40.66-41.16,68.88c-3.5,5.86-5.16,11.92-3.6,18.69,2.23,9.64,6.11,18.48,11.03,27.01,3.96,6.86,9.05,12.04,15.52,16.67,24.48,17.49,13.67,17.34,25.37,25.57l68.09,47.9,78,54.65,27.05,19.29,43.53,30.48-2.25-11.11c-4.31-21.3-5.23-42.79-2.45-65.19-16.52.81-48.09-.06-58.86-13.29-2.73-3.35-3-10.53,1.02-13.39,7.24-5.15,19.8,1.06,36.45-12.69,8.33-6.88,16.8-15.06,19.43-26.21,1.37-5.83.08-12.66-.77-18.8-2.22-16.06-3.23-32.89-4.04-48.74-5.65-3.93-9.39-9.22-8.3-17.02,4.78-34.3,16.69-51.44,38.45-79.79l-28.63,10.07c-3.15,1.11-8.5.35-10.75-1.78-10.26-9.72,11.92-32.03,19.03-39.11,14.34-14.27,35.74-26.16,57.16-27.21-10.54-29.28,1.73-61.91,22.43-83.97,6.32-6.74,17.32-14.71,24.96-7.41,2.91,2.78,3.11,6.5,1.92,10.27-5.74,18.22-9.1,35.65-2.8,55.06,19.7-18.93,49.01-39.86,72.95-50.19,31.85-13.74,65.37-22.36,100.1-24.61,37.9-2.46,72.48.08,109.33,7.58,18.44,3.75,36.03,7.71,54.75,9.95,8.55,1.03,17.45.61,26.11.12,24.69-1.4,62.75-13.56,78.96-32.45,11.53-13.43,3.24-28.17,12.73-31.34,6.24-2.09,11.89,1.51,14.43,7.06,14.19,31.1-2.02,63.14-20.56,88.5l-1.27,1.73c-.3.4.81,1.02,1.34,1.07,38.02,3.51,69.82,13.39,100.86,36.12,9.31,6.82,18.03,14.97,22.48,25.27,2.24,5.18-1.57,11.27-6.37,12.05-12.03,1.94-19.02-2.42-31.09-2.08,24.14,18.23,38.04,27.97,51.45,55.48,15.66,32.13,23.08,75.19,13.03,109.53-1.18,4.02-5.41,6.81-8.85,6.84-15.99.11-5.29-22.98-34.36-54.6-.29-.31-1.88-.82-2.16-.99-.43-.25.01,1.47.17,1.98,3,9.81,6.01,19.14,7.81,29.21,4.93,27.53,1.47,54.56-9.19,80.14-7.03,16.87-15.96,32.42-29.54,44.57-3.93,3.52-10.75,3.23-12.92-1.71-2.43-5.54-.22-11.43,1.26-16.93,4.21-15.63,3.66-33.88-3.48-48.35-3.65,21.17-10.78,39.02-21.29,56.5-6.73,11.2-14.21,20.51-24.48,28.64-4.05,3.21-8.56,5.18-14.32,3.78-8.26,3.24-8.26,40.07-8.39,49.16-.34,25.05-6.27,48.89-18.84,70.41-7.06,12.1-14.01,23.26-22.93,34.07l-52.38,63.51-37.4,45.81c-6.81,8.34-15.08,16.02-23.3,22.44-.54.42-1.23,2.42.31,3.5l133.54,93.09c3.29,2.3,7.33,8.44,11.63,4.2l9.58-9.47c11.84-11.69,32.81-33.63,48.42-37.43,17.59-4.28,34.6,1.39,48.47,12.54,16.9,13.58,5.04,8.72,33.17,11.81,13.05,1.43,23.65,8.8,29.28,20.58,5.69,11.91,14.13,10.18,28.4,17.7s17.98,26.25,24.96,31.98c4.97,4.08,10.96,6.55,16.29,9.86,10.57,6.58,15.4,17.6,20.77,28.28,5.81,11.57,10.32,22.75,13.94,35.2,4.2,14.49,3.64,28.99.6,43.93l-.94,4.6,1.13,1.06c3.84-11.6,15.89-43.27,28.23-44.92l38.14-5.08c9.12-1.21,18.03-2.17,26.99-4.28,16.63-3.92,52.91-13.33,67.29-4.87l9.8,5.77,2.15.78c-2.82-1.02,28.65,14.94,29.91,17.11l1.32,2.26c1.96,3.36,7.76-34.04,31.28-35.9,21.86-1.73,42.69-4.45,64.13-9.2,19.34-4.29,38.08-8.54,57.55-11.45,11.12-1.66,20.64,2.16,29.45,7.67,6.14,3.84,11.41,7.67,15.67,13.58,5.7,7.91,5.05,18.02-1.4,25.64-1.73,2.04-4.72,5.28-4.86,7.87-.84,15.43-11.4,27.27-26.28,30.83-4.57,1.09-9.57,1.09-14.31,1.89-10.46,1.76-20.24,3.84-30.01,6.21l22.65.84c5.44.2,11.35,2.93,15.88,6.02,3.43,2.34,5.32,6.89,6.44,10.46,2.98,9.49-.85,17.03-5.13,25.04-2.54,4.75-2.8,11.05-7.24,14.57-4.01,3.18-10.2,7.94-14.71,9.75l-1.36.55c-.32.13-1.17.48-1.46.65-16.88,9.93-36.27,14.99-55.03,20.31-.36.1-1.18.44-1.6.59l-1.82.67c-2.1-.41-3.22,1.71,2.5.77,14.1-2.32,30.07-5.13,44.62-4.57,3.3.13,6.53.93,9.53,1.37,12.47,1.81,22.28,11.11,20.48,26.11l-2.55,21.21c-.95,7.91-9.82,12.83-16.56,15.45-15.34,5.95-10.16,13.26-27.65,16.9l-61.74,12.84-30.73,7.34-27.58,7.24c.59,1.55,2.46,1.76,3.19,1.91l1.76.37,1.8.38,1.69.34c.5.1,1,.23,1.56.38l1.59.41,1.59.42,1.51.4,1.29.72c1.11.62,1.29.76,2.29,1.73l1,.98,1.01.99,1.01.99c.62.61,1.46,1.51,1.76,2.29l.53,1.39.54,1.43.55,1.44.55,1.42.56,1.43.58,1.48.41,1.58.27,1.87.26,1.86.24,1.73c3.03,21.91,5.23,43.25,6.02,65.45l2.46,68.87-.03,2.08-.03,2.01v1.98s-.01,1.98-.01,1.98v2.03c0,.62.02,1.33.07,1.94l.17,2.07.14,1.79.11,1.41.08,1.17.09,1.23.11,1.53.11,1.81.07,1.97.04,2.02.04,1.99.04,2.01.03,2.02.03,2.02.02,2.05c0,.68.02,1.38.06,1.95l.64,10.1c.38,1.33,1.16,3.97.7,1.76l3.48-8.67,23.23-74.91,25.78-82.07c3.72-11.84,8.08-22.71,13.14-33.83,2.64-5.81,7.58-10.35,11.09-14.6,7.52-9.1,15.78-7.71,25.77-9.55,15.24-2.8,31.48-7.15,46,2.13,11.15,7.12,11.57,25.28,8.15,36.78l-11,36.96-15.47,48.89-26.07,83.65c-5.29,16.96-10.04,33.21-16.21,49.71-2.87,7.67-7.49,13.12-12.67,19.29l-6.85,8.15c-7.43,8.84-19.75,8.37-29.52,2.68-8.28-4.82-17.59,1.67-28.57-3.55-3.05-1.45-7.11-4.15-9.85-5.8-3.97-2.39-1.26,3.06-8.72,12.98-13.36,17.77-19.79,9.03-31.64,16.06-7.93,4.7-16.03-.14-23.55-1.63s-14.46-2.53-19.09-9.91c-1.57-2.49-4.05-6.04-4.59-9.38l-6.86-42.66c-.35-2.2-10.57,2.47-16.69,4.21l-35.94,10.26c-2.08.59-3.75,1.93-4.78,3.85l-14.77,27.54c-6.63,12.37-14.74,24.14-25.9,32.77-14.26,11.02-35.15,3.59-48.21-5.42-2.89-1.99-5.06-2.17-8.83-1.29l-8.7-.31-6.02,5.51c-5.38,4.91-13.56,5.33-20.57,3.84l-20.36-4.32-1.62-.29c-3.43-.61-8.73-2.94-11.28-4.86-22.2-16.73-39.14-38.22-51.58-62.93-.07-.13-1.42,1.09-1.6,1.68-5.95,19.82-13.34,44.34-22.95,63.19l-.95,1.87c-5.3,10.4-7.3,17.68-21.46,24.37l-1.38.65-1.45.67-1.39.66-1.25.58-1.48.69c-.21.49-.71,1.61-.7,1.59l83.48-7.09,149.91-10.86,169.81-9.28,35.85-1.27,19.36.37c20.95.4,41.21-3.52,62.12-2.05,12.45.87,24.25.88,36.68.73s34.38,1.22,37.71,15.27c1.54,6.51.23,12.12-3.77,17.26-7.68,9.89-20.43,3.95-37.88,12.79-10.49,5.31-22.14,2.42-32.52,5.49-5.36,1.59-10.22,5.87-16.37,6.74-8.36,1.18-16.51,2.11-24.99,2.83l-19.05,1.63c-7.48.64-16.3,1.43-23.67,1.69-4.32.15-2.42,15.84-22.75,18.16l-61.62,7.03c-25.11,2.86-49.32,4.4-74.49,5.97l-79.43,4.95-54.57,4.06-64.34,5.75-39.85,4-61.99,6.03-136.77,15.19-89.24,10.86-88.05,11.89-183.07,25.61-109.08,17.11-75.91,12.11-80.08,15.04-71.74,12.95c-20.22,3.65-39.77,7.1-59.37,12.94-9.26,2.76-17.74,1.14-26.93.91s-18.76,2.12-28.08-1.95c-12.45-5.44-15.18-17.19-13.12-30.01.77-4.78.05-9.54,4.18-12.93s4.06-8.08,4.95-12.5c2.05-10.15,13.11-13.9,19.18-20.92ZM724.5,640.43l26.94,27.17,23.82,25.98,24.34,26.94c52.9,58.53,124.87,152.25,163.51,220.09l28.48,50c1.81,3.17,5.18,8.34,4.27,12.1-2.7,11.08-6.52,21.15-10.4,31.77l-6.9,18.86c-.17.46-.46,1.63-.56,2.01s1.6.36,2,.26l16.18-3.82,17.18-56.4c3.81-12.51,6.4-24.74,9.28-37.71,6.58-29.65,11.5-59,13.7-89.2,1.99-27.29-.96-53.49-8.2-79.91-1.76-6.42-3.95-13.79-1.31-19.6.26-.57,1.29-1.7,1.66-1.49,2.94,1.67,14.13,18.64,17.05,23.02,17.08,25.6,24.02,61.96,24.38,92.56.38,32.95.06,65.03-2.19,97.9l-2,29.24c.87,2.08,1.05,2.11,1.08.01,2.64-13.34,4.55-25.88,5.61-39.12l1.85-23.14,2.1-34.88c.98-16.32.22-31.58-.38-48.33-.16-.61.97.38,1.38.96,5.45,12.39,6.51,24.86,7.4,38.28,1.38,20.61,2.8,40.29,2.27,61.05-.68,26.52-1.42,52.02-3.64,78.38-.41,4.89-1.8,10.62-2.52,15.58-.42,2.84,3.6,4.93,4,4.32,3.38-5.12,8.24-30.77,8.58-39.09l1.92-47.3c.82-20.19.27-39.75-.73-59.94l-1.05-21.09c.57-1.48,1.36-3.71.94-1.75l4.23,7c8.22,13.61,15.23,27.02,19.83,42.39l17.41,58.2,8.61,30.54c.52,1.83,2.25,3.89,3.62,3.56,2.06-.5,3.15-2.53,2.67-4.6-4.74-20.48-9.59-39.82-15.4-60.08l-5.45-19.02c-.1-.34.01-1.87.1-2.17.08-.27.55-.48.68-.22l.73,1.39,3.99,7.49c.21.39.49.96.69,1.37l12.01,25.59c.16.34.42.98.61,1.47l.63,1.64c5.59,14.47,8.88,29.29,12.95,43.69l3.11-.74,5.83-1.28c12.86-2.82,25.43-4.8,38.53-6.64l2.64-.37-6.59-8.44-6.69-8.47c18,9.26,27.85,5.17,45.62,4.45,1.02.67,2.6,3.65,3.77,4.61l28.45,23.34,13.23,10.41c10.44-9,20.75-17.94,32.27-25.42,1.02-.66,2.66-1.64,2.03-1.95l-2.98-1.46-8.86-4.58c-4.42-2.28-9.87-5.89-11.79-10.84-2.77-7.13-3.25-23.94-1.39-22.28l1.87,1.67c18.7,16.71,21.65,11.04,20.13,10.4-6.59-2.79-14.86-12.23-22.35-16.41-.71-3.99,4.6-12.46,6.24-14.68l15.58-20.98,25.97-35.44c.29-.4.71-2.09.75-2.48.03-.26-.52-.18-.79-.11-6.72,1.86-32.24,30.56-38.42,38.02-7.49,9.03-16.15,18.16-20.11,29.16-2.87,8-2.39,26.01-4.94,24.76l-1.69-.83c-12.53-6.19-22.86-13.87-25.7-27.92l-3.66-18.12c4.28,1.47,5.38,5.32,8.45,7.28,4.15,2.65,8.51,4.81,13.12,7.22.72-.47,1.5-.9,1.25-1.24-5.81-8.06-11.21-5.33-18.93-17.63-1.76-2.81-1.81-6.35-.45-9.33,3.46-7.6,7.54-14.7,12.96-21.1,7.07-8.34,13.01-16.85,19.51-25.55l6.41-8.57,1.99-2.58c4.46-5.79-9.97,3.57-15.75,9.67l-11.28,11.9c-11.77,12.42-19.76,18.5-27.51,34.07l-35.34-19.67c-.12-7.94,2.31-14.33,7.35-20.14,15.73-18.14,32.34-35.22,51.37-50.44,6.19-4.95,17.5-7.02,24.63-4.68,16.45,5.39,18.7,27.1,36.97,23.33,19.63-4.06,27.15,3.12,34.87,19.61,5.82,12.43,13.61,6.73,31.58,14.73,9.56,4.26,7.14,22.44,28.12,35.69l9.61,6.07c6.49,4.1,11.24,9.62,13.99,16.98,3.32,8.9,6.87,17.34,11.05,25.88,2.87,5.87,5.11,12.05,5.46,18.64l1.32,24.87,6.34,9.27c.28.41,1.63,1.71,1.67,1.68.03-.01.59-1.49.68-1.78,5.41-18.87,3.79-39.04-3.24-57.34-26.28-68.47-37.17-35.71-53.46-69.05-12.19-24.96-27.87-19.78-36.77-27.18-9.73-8.08-9.86-20.89-23.88-25.24-21.47-6.66-27.47,1.17-40.57-11.27-16.46-15.62-38.4-23.67-57.88-8.6-13.14,10.16-24.34,21.95-36.61,33.23l-11.2,10.3c-.71.66-3.05.51-4-.15l-100.1-69.93-48.46-34.41c-4.13-2.93-7.26-7.12-8.48-11.32,13.35-3.7,29.88-23.07,38.29-33.41l38.12-46.85c19.94-24.51,40.3-47.52,58.42-73.36,47.17-67.26,9.57-99.23,40.61-145.46,8.88-13.23,15.14-27.53,20.79-42.51,1.15-1.18,1.66-1.6,1-.27l-.59,4.87-.22,1.97-.2,1.84-.17,1.62-.3,1.52-.32,1.6c-3.21,15.81-3.64,20.8-10.7,35.85.52-.06,1-.13,1.17-.14,7.15-6.34,13.96-12.57,19.45-20.55,8.17-11.89,15.16-23.79,19.31-37.66l.5-1.67c4.85-16.21,6.93-32.3,7.18-49.32l.03-2.18c0-.48.92-1.95,1.2-1.56,12.77,17.48,26.19,54.65,20.61,75.3l-3.54,13.11c-.11.42,0,2.31,0,2.79,0,.39.3.1,1.03-.66,12.17-13.21,20.25-27.99,26.24-44.78,13.72-38.42,9.04-79.82-11.04-115.01l-7.37-12.91c-2.3-4.03-4.98-7.67-7.81-11.47-6-8.07,34.09,19.49,52.03,44.7,7.81,10.98,13.12,22.29,15.7,34.49-.56-2.64,2.17,7.68,2.46,4.88,5.82-28.05,4.57-57.86-5.56-85.53-3.98-10.88-8.33-21.57-14.96-31.04-15.17-21.63-36.82-37.32-60.21-48.7l-14.5-7.06c-1.62-.38-1.98-.54-.25-1.25,17.55-1.05,40.73,1.03,57.59,4.41.34.07,12.77,3.42,9.54-2-4.01-6.71-11.25-14.1-18.3-19.15-21.8-15.64-46.24-24.96-72.56-30.41-14.31-2.96-28.34-2.51-43.07-3.34l-2.49-.14c-.33-.02.46-.73.87-1.2,13.12-16.48,19.9-21.38,29.76-41.05,5.38-10.73,8.52-21.95,8.73-34.42.19-11.43-7.81-28.9-7.26-18.58,1,18.81-13.43,33.6-29.36,42.09-27.81,14.82-59.48,21.87-91.09,18.79-9.97-.97-19.09-2.86-28.71-4.71-19.71-3.79-38.34-8.08-58.49-10.7-35-4.55-69.53-4.91-104.31,1.01-15.44,2.63-29.86,6.57-44.73,11.24-15.7,4.93-29.83,11.85-44.27,19.91-22.18,12.38-41.2,28.73-59.23,46.63l-2.09-.61c-8.98-18.02-11.07-41.43-5.18-60.61l3.31-10.78c3.62-11.79-53.44,33.36-26.87,89.83l-1.14,1.3c-24.43-.88-47,9.39-63.94,26.67-16.55,16.88-16.87,23.24-17.85,24.5.19-.25,2.2.08,2.67-.17,15.58-8.1,35.8-15.33,54.65-15.06l-19.08,22.15c-12.33,14.32-21.86,29.93-28.21,47.81-3.21,9.03-6.02,17.44-6.27,27.66,3.74-4.27,5.53-8.77,8.42-13.69l5.68-9.67c.28-.47,1.64-1.39,2-1.67.23-.18.32,1.47.22,1.89l-4.81,20.58c-2.64,11.3-3.1,22.73-1.86,34.35l4.14,38.91c2.21,20.77-17.15,41.87-34.83,50.56-7.65,3.76-15.68,3.7-25,5.67,17.3,10.32,42.6,11.08,61.88,7.53-5.58,42.21-.54,65.54,7.23,104.15.15.74.06,1.87.03,2.28s-2.08-.14-2.76-.61l-41.49-28.64-59.16-42-41.78-29.05-76.86-54.3c-6.06-4.28-14.87-7.79-18.62-14.1-5.12-8.62-9.75-14.6-18.62-19.87-13.1-7.78-21.26-21.83-26.78-35.95-9.28-23.78-3.32-34.41,8.44-53.89l64.63-107.05,22.02-37.15c3.39-5.72,6.38-11.73,8.82-17.88,2.67-6.74-.76-13.81-7.02-16.85-7.92-3.84-15.48-7.52-23.04-12.05-10.58-6.33-21.06-11.61-32.5-16.31l-29.14-11.99c-8.46-3.48-17.08-6.92-26.53-6.12-4.03.35-8.01,5.17-10.2,8.41l-18.64,27.49-26.11,39.99-18.53,29.31-38.83,60.05-32.05,50.28-50.9,79.11-76.05,118.65-15.35,24-28.49,44.39c-2.85,4.43-6.65,13.08-2.57,17.84,12.37,14.45,26.59,26.92,43.02,36.71l49.29,29.36c6.75,4.02,15.02,2.19,19.69-3.35,4.09-4.84,7.88-9.46,11.44-14.66l26.44-38.56,15.16-21.11,49.67-73.05c6.62-9.74,12.7-18.88,20.32-27.77,10.6-12.35,31.87-13.93,46.96-12.94,16.98,1.11,21.19,13.36,37.32,20.92,7.94,3.72,6.86-4.36,22.54,6.57l162.49,113.24,114.05,79.8c1.22.85,3.74,3.75,3.25,4.99-9.68,24.44-20.11,32.5-43.23,41.79-17.67,7.1-35.76,10.33-54.77,12.07l-40.81,3.74c-15.39,1.41-30.1,4.12-45.18,7.6-43.41,10.04-81.51,31.64-113.7,62.09-36.37,34.41-64.66,74.9-75.6,124.5l-7.03,31.88c-.97,4.38-2.98,8.6-6.5,11.59l-28.66,24.35c-19.07,16.2-34,34.79-31.45,61.49,1.17,12.28-14,32.58-21.83,43.81,26.6-23.47,53.03-46.51,82.31-67.25,20.36-14.43,39.83-28.14,60.98-40.95l28.14-17.04c8.29-5.02,16.49-9,24.62-14.62-10.18,3.23-18.49,7.92-27.83,12.36-23.63,11.21-45.96,23.67-67.77,38.09l-22.45,14.85c-13.2,8.73-25.36,17.58-38.76,28.14-.16-18.59,10.44-33.66,24.23-44.76l12.3-9.91,48.28-37.4,57.8-43.21c9.76-7.3,18.96-14.06,28.1-22.01,1.95-1.69,2.72-4.91,1.65-6.58-4.43-6.9-25.66,7.1-31.36,10.85-15.11,9.95-29.71,19.85-43.73,31.24-7.69,6.25-14.64,11.56-23.17,17.36l5.66-18.73c5.68-18.79,12.16-36.93,22.37-53.77s22.83-33.24,37.28-47.63c5.71-5.69,12.75-9.44,20.46-11.33,27.95-6.82,60-2,87.8,5.23-30.28-13.88-54.71-19.29-88.73-14.17,13.22-17.27,46.63-34.03,66.05-41.09,24.35-8.85,49.1-13.82,74.71-17.38l42.3-5.88c-3.38,3.48-7.33,4.39-11.41,5.84-8.78,3.14-16.79,6.22-25.71,11.01,5.91,1.44,11,.47,16.58-1.24,28.5-8.74,45.92-17.44,74.16-27.59,7.43,8.52,13.21,16.96,19.54,26.05l26.23,37.63,24.43,36.7,92.77,137.2,52.33,81.63,22.95,37.97,6.49,11.09,7.58-3.15-7.67-12.46-34.28-56.48-26.57-42.39-37.08-56.07-53.23-81.79c-24.49-37.62-49.16-74.1-75.32-110.36-1.39-1.92-2.34-4.81-3.41-7.12l9.88-8.04c7.65-6.22,31.18-48.99,40.75-49.31ZM880.86,962.86c-10.79-22.05-24.28-41.48-38.2-61.34l-29.29-41.79-31.69-44.51-51.48-71.27-29.07-40.05-12.16-16.23c-2.1,4.75,18.33,34.13,21.44,38.82,6.21,9.37,11.91,18.41,18.57,27.54l32.89,45.12,45.92,62.96,49.72,68.24,23.35,32.5ZM543.66,807.34c44.1,38.8,69.11,115.14,72.92,171.24l1.53,22.46c.53,32.22-1.42,63.63-5.23,95.79,16.31,6.98,28.76,18.81,38.38,33.27,2.27-17.76,5.6-33.55,10.71-50.14,6.38-30.51,12.98-59.9,16.18-90.99,3-29.08,4.33-57.19,3.34-86.12-.25-7.41-.38-14-2.47-21.21-1.99,7.29-2.65,13.91-3.36,21.15l-3.04,31.03c-2.57-2.89-1.26-5.72-1.5-8.94-2.62-34.69-8.6-68.42-17.98-101.81-2.79-8.39-4.57-15.9-9.58-23.51l7.58,38.44c9.25,46.91,15.55,91.84,12.58,139.67-.77,12.35-2.6,23.79-5.17,35.71l-9.59,44.53c-1.04,4.83-2.55,9-4.76,13.19-.2-7.07,1.03-12.72,1.66-19.17,1.64-16.94,2.38-33.38,2.77-50.3.25-11.03-.03-21.34-2.03-32.95-2.07,8.77-2.66,17.18-3.38,26.33-1.51,19.04-3.18,37.42-8.55,56.34-.07-83.39-15.73-179.7-81.75-238.27-2.71-2.41-5.98-4.59-9.24-5.74ZM581.62,1072.92c.75-9.2-.64-16.51-2.12-24.57-4.75-32.42-13.59-63.06-26.48-93.23-14.88-34.82-44.53-89-85.11-96.95,5.25,4.61,11.05,8.04,16.77,12.28,15.24,11.33,26.4,26.34,36.34,42.47,13.6,22.07,24.47,44.36,33.09,68.92,8.15,23.2,14.98,45.92,21.54,69.53l5.99,21.56ZM1233.72,921.07c-8.08-5.91-15.77-10.27-24.58-14.17,5.45,7.73,15.14,13.65,24.58,14.17ZM1346.68,1001.58c14.67-21.2,26.49-31.83,42.49-52.87-2.05.13-4.02,1.19-5.77,2.68-15.46,13.13-28.78,27.73-41.59,43.42-5.72,7.01-10.16,13.92-12.37,22.81l-2.85,4.06c23.66-10.17,16.71-15.23,20.08-20.1ZM726.15,1078.54c4.39-16.8,8.72-32.49,11.46-48.95,3.93-23.57,7.5-46.63,4.63-71.25-5.67,40.76-11.73,80.37-24.99,119.1,2.64,1.46,5.94,2.19,8.9,1.09ZM1723.6,1120.25l52.38-13.22c17.27-4.36,33.1-11.35,48.01-20.94l5.7-7.69-7.16-2.31c2.73-2.75,4.95-4.7,8.34-6.34,2.38-1.15,5.39-5.77,2.24-7.76-5.71-3.62-13.16-3.25-19.92-2.68-25.42,2.15-48.91,7.76-75.4,14.01l12.17-35.21c1.91-5.54,38.65-12.75,45.99-14.39,16.12-3.62,31.6-7.55,47.99-9.73,5.82-.77,11.73-.14,15.25-6.53-6.14-1.35-2.97,2.07-8.09,1.99-.51,0-1.03-2.07-.58-2.3l9.25-4.76-2.26-2.19,3.99-3.78c-4.64-2.46-7.9-2.11-12.46-1.5,6.96-11.7,18.7-6.88,21.12-16.03l-6.13-4.69-7.37-1.48-17.88,2.47c6.32-5.7,10.61-2.56,15.92-6.5-3.76-2.72-8.18-3.7-12.69-3.03-11.44,1.7-22.22,3.6-33.47,5.99l-42.67,9.06c-12.96,2.75-25.63,3.57-38.86,5.15-3.69.44-9.2.15-11.38,3.66-7.22,11.62-10.91,24.12-15.1,37.21-8.38,26.17-19.05,50.77-29.64,76.1-4.28,10.24-9.55,19.47-11.93,30.2l-4.68,21.17-11.84,39.91c-.59,1.98,1.35,5.25,3.16,6.63,1.19.91,2.97.74,4.8.01l1.36,4.37c.26.83,2.49.58,3.26.97l7.16,4.18-2.46,3.51,7.58,3.25,47.33-12.06c22.97-5.85,45.65-9.9,68.92-14.31,15.06-2.85,15.88-9.05,32.87-17.48,1.78-.88,5.04-2.98,4.57-4.72-1.38-5.06-5.5-4.89-10.63-4.91,3.4-7.62,16.64-6.51,11.74-16.92l-8.63-2.14c-2.84-.71-7.14-.69-10.41-.2l-50.42,7.53-28.97,5.58c-7.14,1.37-13.28,3.36-21.39,5.81l14.88-39.72c1.73-1.06,4.35-2.7,6.44-3.23ZM1422.94,1002.68c2.85-8.33,9.8-13.93,9.6-21.8-4.4,2.8-6.75,5.85-9.42,9.26l-7.33,9.38c2.38,1.57,5.25,2.82,7.15,3.16ZM358.06,1328.62c11.84-8.28,21.08-17.91,30.5-28.07,8.99-9.69,14.61-21.94,17.92-34.69,1.94-7.48,1.45-15.24.24-22.84-1.03-6.5-8.62-19.57-13.63-23.98-12.09-10.63-25.65-19.27-40.61-25.33-10.36-4.2-20.84-5.63-31.29-9.17l-34.03-11.52c-4.78-1.62-8.99-3.16-13.45-6.12l8.98-20.28c2.04-4.61,29.18-29.62,35.63-34.3,11.07-8.04,21.8-15.5,33.78-22.28,15.62-8.83,30.76-17.96,46.84-23.83,3.77-.35,8.23-1.15,11.98-2.12.48-4.83,2.02-7.25,6.1-7.59,3-.25,6.33,2.04,6.84,6.03,1.55,12.19-12.73,29.7-15.27,43l15.93-15.38,6.2-8.06-4.17,10.88c4.28-2.5,7.15-4.99,12.13-8.73,2.21,3.56-7.75,10.48-6,13.92l10.3-9.91c-2.33,5.05-4.88,8.39-7.17,12.54l-9.88,17.85c.99-.26,3.35-1.2,4.06-1.93l16.61-17.11c5.67-5.84,10.32-12.36,15.59-18.5,7.86-9.16,12.76-19.36,18.4-29.62,5.77-10.49,10.62-20.96,9.4-33.65-.3-3.16-1.35-7.31-6.51-7.91l1.32,7.66-5.73-5.74-7.98-7.17c-6.41-5.76-11.81-16.23-20.95-18.38-30.04-7.07-68.83,14.27-94.5,28.55l-37.23,20.72c-12.82,7.13-24.3,15.38-36.64,23.32-14.04,9.02-26.66,18.83-39.83,29.07l-14.12,10.97c-11.35,8.82-20.13,20.63-28.02,32.77-5.23,8.05-7.74,16.97-11.47,25.79-1.64,3.88-4.7,8.81-3.93,13.14.99,5.54,2.23,12.31,5.24,16.9,8.64,13.17,19.88,24.21,33.35,32.35,10.04,6.06,21.68,8.51,32.96,11.02l30.31,6.75c16.05,3.57,42.11,8.4,53.38,19.67,9.02,9.02-15.75,22.06-22.85,26.39-32.31,19.67-62.13,25.86-99.74,26.51-5.82.1-10.57-2.9-14.3-6.81-15.51-4.22-14.46,2.23-23.94-3.9-.98.62-2.76,3.11-3.08,4.27l-.52,1.9c-.09.33-1.11.03-1.3-.26-2.3-3.57,6.98-19.29,8.65-23.29-3.93,0-5.86,2.85-8.32,5.15-9.82,9.17-7.41,2.35-10.97,17.57-3.3-2.26-1.04-5.08-1.61-9.26-13.4,10.25-10.04,24.79-.91,37.18-3.2.12-7.34.37-9.3,1.65,2.69,9.71,10.92,13.42,17.9,18.24l15.43,10.64c8.05,5.56,17.94,6.79,27.44,8.66,13.68,2.7,26.67,2.48,40.48.67,5.43-.71,10.84-.77,16.56-2.47,31.45-9.34,61.46-22.38,88.85-41.52ZM1501.62,1187.43l17.2-42.5c26.06-5.23,51.03-10.77,75.94-19.16l3.63-3.41,16.35-6.84,11.54-5.25c3.06-1.39,5.88-2.53,4.49-6.2-.98-2.61-2.95-4.15-6.87-3.1l-1.16-8.8c3.4-2.65,5.82-4.68,8.1-8.19-11.84-2.27-27.2-.54-39.11,1.9l-47.97,9.84c-1.15.24-3.65-.5-4.37-1.27l13.75-37.48,20.28-4.59c18.16-4.11,35.98-8.48,54.49-11.44,8.21-1.31,15.59-2.48,23.61-4.34l4.32-5.72c.56-.75-2.04-2.71-2.93-2.76-2.33-.08-5.14,1.18-7.8-.64l26.08-9.13-2.09-5.5c-11.54-1.1-23.07,1.77-34.74,2.43l24.11-5.83-9.53-7.63c-10.23-.22-19.63.2-29.63,1.76-3.53.55-6.87,2.3-10,.9l30.63-6.64c-13.86-6.97-19.87-5.22-33.28-2.46l-33.43,6.89-27.95,4.33c-9.06,1.4-16.84,2.59-26.46,2.94-2.71.1-6.09,5.21-7.1,8.04l-17.13,47.84-11.53,32.35-27.13,76.25c-5.43,15.25-18.42,44.01-16.4,57.44,6.75-.53,3.32-5.08,6.51-11.38,6.06,18.65,1.01,11.34,12.29,17.82,3.85,2.21,5.37,5.2,10.53,4.06l96.64-21.31c10.22-2.25,11.83-3.19,20.44-6.76s18.16-5.66,28.05-7.9l3.97-9.27-6.75-.3,9.08-5.46c-.55-.73-2.04-2.44-2.6-2.76l-15.42,2.47c.05-2.85,11.12-6.47,17.09-9.29,1.45-.69,1.86-5.62.43-6.23-12.74-5.44-21.85-2.43-36.05-1.61-27.84,1.6-54.53,5.25-82.13,13.93ZM1434.59,1006.48c1.15.34,3.11-1.56,2.9-2.8-.31-1.79-1.42-4.16-2.83-3.5-3.81,1.79-5.52,2.45-8.85,3.72l8.78,2.58ZM1356.16,1162.42c-9.26,4.56-18.69,2.65-26.54,8.36l16.34,3.54c3.94.85,7.77,2.44,11.99,1.97l13.14-1.46c-3.85,3.28-6.42,5.39-9.55,8.77-17.99,19.39-27.18,21.48-53.6,24.59-3.67.43-6.95-3.37-7.44-6.81-3.47-24.29,6.7-53.11,18.18-74.73,9.82-18.5,23.37-34.92,39.04-48.66,7.96-6.98,31.98-21.15,38.93-9.21.4.68,2.98,1.14,2.99,1.83.15,10.28,2.32,6.28-.26,16.43l2.43,5.46,10.36-7.63,1.5,2.75c.89,1.64,9.64-5.79,13.33-6.14-2.63,4.68-3.55,7.07-2.31,11.59l7.45-3.84c3.66-10.69,16.2-17.17,17.49-30.38.58-5.97-.33-15.4-4.32-20.11-12.28-14.5-30.82-19.8-49.25-19.11-14.09.53-26.54,5.09-39.22,10.34-16.14,6.68-29.11,16.06-42.12,27.53-12.29,10.85-22.92,22.46-32.27,36.08-10.59,15.42-20.56,30.77-27.31,48.41-10.94,28.6-12.52,40.34-11.01,71.01.79,16.03,13.82,28.83,27.26,35.46,30.79,15.18,70,6.01,99.48-8.6,8.69-4.31,16.38-8.87,23.07-16,19.7-20.98,26.85-35.01,40.06-59.86,5.45-10.24,10.17-20.65,12.65-31.65-3.25-.32-5.63-.81-6.74-1.81,3.34-2.04,6.61-3.94,8.25-6.18.75-1.02-.68-4.26-1.84-4.37l-4.22-.37c-3.08-.27-6.35-.46-9.4.1l-42.77,7.82-32.68,5.27c.49-.08-17.07,5.59-12.85,9.06,5.55,4.58,9.34,1.99,15.76,3.73-5.24,1.5-11.01,4.49-14.08-1.35-.36-.24-2.67,2.92-1.89,3.23l4.64,1.86c-6.83,2.43-12.03,7.25-16.84,13.39,4.01,3.09,15.61-2.28,24.16-.33ZM1148.51,1182.04l33.19-8.23c1.36-.34,3.39-3.01,4.86-3.59,11.73-4.62,25.96-9.87,38.52-15.59-1.63-2.11-2.63-2.31-5.41-3.67l2.76-5.58c-2.27-2.62-10.21,3.08-12.78.89,6.36-3.98,11.39-6.09,18.22-8.93l-3.63-6.11c-2.56-.42-3.63-.78-5.69-1.43-7.89-2.48-16.49-1.44-24.7,0l-59.78,10.49,12.18-32.59,25.56-8.84c23.27-5.32,45.98-9.79,69.59-13.44,1.94-.3,4.34-1.18,5.72-1.71l-7.44-3.79,13.68-3.61c1.37-.36,3.13-3.54,2.58-4.79-.58-1.31-3.29-2.9-4.73-2.72l-10.12,1.23c.49-9.02,14.46-2.48,19.59-12.08-7.05-3.81-10.21.94-17.55.72l7.37-5.36-16.34-.89c-8.36-.46-24.76.87-32.84,4.14l-1.44-1.56,31.49-6.3-9.82-3.29c-5.43-1.82-11-1.57-16.75-.59l-54.71,9.27-18.97,3.06c-6.48,1.05-18.02-2.41-22.24,5.69-2.98,5.72-5.23,11.48-7.46,17.8-10.21,28.93-20.09,57.34-32.3,85.5-11.43,26.36-25.11,72.53-31.21,100.82-.5,2.3,1.08,5.27,2.6,5.88l5.31-6.67c-.12,7.66,3.44,11.17,8.75,12.07,4.26.72,3.49,10.89,22.59,6.41l49.87-11.71,42.72-9.37c7.17-1.57,13.51-7.15,22.35-11.21s16.42-1.64,22.13-11.46l-7.54-1.18c4.64-2.73,9.08-3.16,9.37-8.89-8,2.22-11.9,3.55-20.25,3.75,5.93-3.04,13.93-5.33,20.28-7.44,1.2-.4,1.12-4.21.19-5.1-4-3.83-8.32,1.8-11.04-4.87l-50.15,5.36c-12.12,1.3-23.72,2.92-35.59,5.34l-21.75,4.44,12.62-35.13c1.41-3.91,2.58-6.7,7.15-7.78l30.98-7.35ZM911.8,1233.21c6.86-15.53,2.03-14.92,20.07-19.29l34.71-8.41c9.36-2.27,18.95-4.6,27.87-8.14,5.45-2.17,10.2-5.35,15.95-7.21,17.87-5.79,12.55-3.48,22.57-13.47,1.15-1.14-.02-5.31-.66-6.46-4.35,1.89-7.64,2.95-12.29,2.13l10.35-5.58-4.07-.86c4.04-2.28,6.91-3.53,6.88-7.86l-8.03,2.35.37-3.54c.46-4.44-27.14.08-30.56.72l-32.05,5.99-21.93,4.3c-2-1.51-1.42-4.98-.6-7.23l11.06-30.22,22.16-4.98c23.26-5.22,45.74-11.52,69.33-15.38,4.79-.78,18.17-3.03,16.69-9.04-4.48,1.26-7.41,2-11.81,1.46l15.58-4.56c2.68-.78,13.47-6.8,9.33-9.25-.75-.44-2.43-.72-3.48-.54l-24.51,4.07,21.48-10.86-4.75-7.33-15.88,2.19c4.91-2.82,11.23-3.07,9.87-9.75-3.84-1.09-9.32-2.88-12.62-2.92l-39.63,7.66-34.13,7.02-34.02,5.93c-3.64.63-6.68.3-10.2-.69-11.4-3.2-16.7,17.11-18.53,24.16-5.05,19.4-12.5,37.37-19.62,56.15l-23.88,62.97-16.17,41.84c-2.65,6.85-10.99,25.71-4.93,32.59l6.11-6.9c2.23,6.57,1.51,5.21,9.3,11.79.97.82,4.08,1.72,5.33,1.66,2.4-.13,7.42-7.67,7.16-4.01l-.27,3.69c1.65,3.88,6.87,2.28,10.35,1.37l43.46-11.31,31.61-7.47c11.71-2.77,23.2-5.03,34.06-10.03,6.41-2.95,12.78-5.34,19.53-7.73,1.1-.39,2.66-1.84,3.76-2.96l-7.27-1.6c3.85-1.84,6.79-3.42,9.26-6.91l-12.16-1.56,7.69-3.84c2.98-1.49,6.19-4.45,5.25-8.87-5.46-.93-11.89-1.47-17.65-1.67l4.14-4.44c-14.56.63-28.05,2.62-42.36,5.66l-37.08,7.9c-6.65,1.42-12.13,3.08-19.78,5.21,2.56-9.05,5.75-17.09,9.66-25.93ZM749.91,1101.43l-13.81,20.57,9.43-26c-5.66,1.81-8.26,5.88-11.08,9.81l-1.13-5.38c-.2-.97-3.91.15-4.42,1l-7.76,12.81,1.82-15.65c-.8-.26-2.79.38-4.53,1.2l-5.63-.87c-5.31,5.83-8.56,12.97-11.81,20.29l-12.9,29.03c-6.48,14.57-11.33,29.05-16.66,44.15l-15.18,42.99c-3.69,10.46-3.22,20.18-2.98,30.86.48,20.64,9.53,38.19,26.67,49.95,12.44,8.54,26.23,12.29,41.62,9.52,5.44-.98,12.38.51,17.99-1.39,14.82-5.03,28.33-12.57,40.55-22.23,7.11-5.62,12.74-12.44,18.46-19.48,10.29-12.64,18.24-26.29,26.87-40.21,10.81-17.44,17.73-35.9,23.71-55.5l12.36-40.5,9.75-29.41c2.9-8.73,4.59-17.16,5.54-26.28l-6.35,6.76c-.78-4.01,5.68-18.99,1.39-17.62-.62.2-2.5.93-2.98,1.64l-11.7,17.56c-.1-5.62,2.53-10.47,5.66-15.11.52-.78,1.16-2.52.43-2.74-5.82-1.78-7.11,4.8-8.78,8.66l-1.24-4.53c-.27-.97-3.52.1-4.15.99l-15.06,21.04c-.49.68-.83,2.71-1.01,3.3s-1.67.42-3.18.25l4.93-9.99,3.86-1.45,1.58-11.35-6.39,12.78c-1.31-3.22.05-6.18.92-9.36l1-3.64c.18-.67-2.53-2.23-3.25-1.64-5.64,4.57-9.09,15.12-11.72,22.6l-20.29,57.73c-5.43,15.46-12.88,29.45-19.63,44.23-5.88,12.88-12.83,24.5-20.53,36.28-3.74,5.73-8.04,10.53-12.55,15.66-7.15,8.11-15.78,14.7-26.72,16.16-5.14.69-9.11-1.96-10.13-6.81-7.07-33.65,17.82-81.48,29.13-114.88l13.91-41.08,3.41-9.93-4.99,3.48c-.42-4.12.18-6.65-2.44-8.24ZM599.67,1349.4c-2.72-2.76-3.97-5.64-2.28-7.27l8.2,4.77,8.22,5.81c.55.39,2.81.12,3.01-.47.13-.39.3-1.91.17-2.44l-4.17-16.36c-.23-.91-2.08-3.6-1.55-4.27l1.67-2.12-23.12-31.32c16.37-20.55,32.57-40.36,41.28-65.53,7-20.23,15.57-48.06,9.65-69.08-3.11-11.05-9.61-21.15-17.07-30.01-20.94-24.89-60.04-25.15-87.45-11.86-14.82,7.19-22.33,11.78-34.65,22.39-22.38,19.26-42.09,40.68-55.9,67.03-7.98,15.21-13.04,30.88-17.69,47.3-3.8,13.41-3.74,27.04-1.91,41.07,4.47,34.25,57.33,48.53,89.58,38.3l36.41-11.55c8.72,11.05,15.85,28.76,29.36,32.08l.02-7.64,12.7,10.61c.85.71,3.88-.78,3.84-1.79-.25-7.04-3.62-7.29-1.46-7.45l3.17-.24ZM1749.29,1488.3l1.1-2.24c.16-.33,1.25.9,1.35,1.25l1.62,5.88c3.74-2.98,6.38-4.63,10.3-4.5-1.02,3.55.32,8.57,4.28,7.73,1.92-1.03,4.19-4.54,5.84-6.87,2.04-2.88,6.51-5.58,7.84-8.97,8.91-22.65,15.36-45.24,22.47-68.39l7.31-23.82,16.21-50.6,18.36-58.74c3.04-9.73,5.38-18.99,7.44-28.95.85-4.1-.97-7.98-3.99-10.31l-3.02,4.32-2.71-5.39-9.04,10.3-1.53-10.69c-6.58,2.7-11.82,7.27-15.9,12.48l-1.15-7.73c-1.36.81-2.68,2.01-3.47,1.7l-4.11-1.59-5.82,9.95-2.26-3.46c-5.97,10.54-11.08,21.24-14.85,33.04l-13.25,41.54-10.55,35.63-18.97,60.76-13.33,41.69c-2.3,7.21-4.44,15-5.44,22.45-.14,1.06,2.37,3.76,3.32,3.34s1.85-1.96,2.18-3.2l1.16-4.27,2.39,11.54c2.06.85,5.9-.08,7.47-1.45,1.98-1.73,2.19-4.49,3.28-7.93.63,1.87,1.09,5.49,1.18,7.79.21.66,2.45,1.5,2.82.74l1.49-3.05ZM1581,1459.46l18.46-5.32,37.95-12.25,1.58,19.08c.76,9.16,2.24,45.39,10.9,50.88l3.56-10.96,1.5,9.05,3.48-.86c.68-.17.9,2.91,1.4,3.49,1.96,2.26,6.55,1.94,10.18,1.06l1.83-8.73c.92-4.38,1.18-7.7,5.04-10.89,4.33,6.32,2.26,11.39,8.74,16.35,2.79-4.05,4.36-7.79,6.49-12.24,1.7-3.55,2.25-6.05,2.14-10.09l-1.61-62.96-.88-46.12-2.95-66.87c-.75-17.03-2.38-33.5-5.69-49.85-.91-4.5-3.77-5.22-6.93-6.26-9.63-3.16-17.38-.83-25.86,2.91s-18.8,3.53-28.01,4.55c-6.51,3.91-11.06,11.25-15.46,17.27-6.12,8.38-11.77,16.12-17.18,24.95l-36.5,59.57-50.69,86.14-19.6,37.29c-4.45,8.46-7.4,17.56-4.59,28.02l7.5-10.36-4.47,15.83c-.44,1.56,2.25,5.07,3.5,4.8l7.71-8.39,4.62-5.39c3.43-4,4.78-8.9,9.15-12.28l-10.06,19.65c8.94,4.43-3.36,7.6,2.85,13.45l13.84-16.91c-1.86,5.48-4.74,10.11-5.44,16.47,11.18-6.85,17.29-17.28,23.18-27.83l21.38-38.28c10.35-2.03,18.94-5.09,28.94-7.97ZM1303.76,1530.95c4.84-12.03,10.43-23.4,14.25-35.78l13-42.07,17.89-7.24c8.64,21.35,20.17,40.06,34.43,57.57,12.4,15.23,24.91,27.85,46.42,25.02,2.56.78,6.64,5.85,9.88,1.56.01-4.38-2.61-10.02-4.42-15.26l9.23,6.34c.53.36,3.08.47,2.92-.11l-.66-2.4-3.57-5.61,12.71,8.5c1.26.84,4.02,1.54,5.48,1.5,3.94-.11,2-6.41,6.83-10.36-1.29-5.57-5.82-10.51-9.72-14.94-6.66-7.58-13.11-14.72-19.19-22.87-11.41-15.29-20.41-31.8-29.67-49.01,26.63-13.09,37.06-20.83,58.62-40.54,5.76-5.26,10.21-11.34,14.44-17.79,3.13-4.78,4.84-9.73,6.79-15.15,6.13-17.07,2.72-35.16-11.35-47.84-31.06-28.01-86.25-24.12-123.55-12.12l-39.62,12.74c-5.45,1.75-9.53,7.41-13.88,10.91-2.84,2.29-4.65,5.61-6.94,7.89l-12.34,12.3c3.81,1.29,9.27-4.85,13.19-1.49l-9.56,5.44c-.67.38-1.3,2.55-1.25,3.29s2.06,1.64,2.98,1.45l23.06-4.78-5.67,14.31-22.32,65.39-12.76,35.84-15.78,45.12c-5.21,14.89-8.27,29.8-7.26,45.69.73-.42,2.49-1.69,3.17-2,1.68-.76,4.97,1.61,6.97,3.48l4.26-3.67c-.23,2.36-.29,5.6.98,6.61,1.5,1.2,4.78,2.22,6.49,1.82l2.37-12.68.76,10.72c.13,1.83,4.55,4.61,6.27,3.86l9.32-10.67,1.99,7.63c9.92-10.6,9.25-6.9,14.77-20.61ZM1110.88,1347.08c2.5-9.62,6.83-18.59,11.09-26.25-2.13-2.71-3.22-4.7-5.47-8.51l-3.77,8.6-.13-5.57c-.11-.73-3.58.6-4.44,1.62l-11.99,14.33,2.42-12.74c.21-1.1-.6-3.6-1.32-5.02l-6.01,5.27c.93-4.16,2.37-6.58.3-9.73-13.54,20.98-22.51,51.24-30.06,75.23l-14.89,47.32c-11.74,37.33-20.89,56.7-16.77,97.35,1.44,14.26,9.21,25.98,21.44,32.72,31.31,17.24,67.75,15.8,98.51-1.81,38.3-21.93,45.84-41.87,62.38-80.77,7.38-17.37,12.82-34.41,18.67-52.33l27.05-82.83c2.83-8.68,8.43-28.47,7.88-37.06-3.23,4.59-5.04,8.61-9.54,13.1,1.37-7.64,3.89-13.8,6.5-21.41-9.49-.65-15.73,18.9-22.7,25.75-.73-5.25,10.74-25.15,2.77-24.78-4.83.22-9.86,5.7-12.63,9.41l-5.42,7.26,2.81-8.63c-4.48,2.88-6.07,6.32-8.66,10.44-.44-5.33,5.63-10.96,1.62-15.25-4.85,6.21-8.69,12.67-11.52,20.19l-15.82,42.15-8.33,23.83-23.31,57.55c-7.02,17.34-14.75,33.48-24.57,49.27-8.35,13.43-20.96,23.05-36.95,24.41-10.42.88-10.12-15.62-10.06-23.16.07-9.04.89-17.42,2.99-26.1,5.53-22.87,16.49-59.12,25.25-80.83,7.53-18.66,13.12-37.06,18.51-56.34l3-10.7-5.95,5.75c.87-6.01,6.98-8.73,2.27-13.56-12.43,7.35-17.71,20.56-25.12,31.85ZM794.58,1512.04l16.68-38.73c2-4.63,3.65-8.99,6.83-13.58l1.02,39.29,1.09,22.45,2.67,34.85c.56,7.33,5.86,22.53,8.25,19.18l1.75-2.46c1.54.44,4.21,1.84,5.36,1.41.99-.37,2.28-1.41,4.06-2.56,1.12,6.62,10.21,11.36,15.92,7.08,3.64-2.73,7.19-7.82,9.6-11.8,6.06-10.01,12.62-18.74,18.83-28.46l14.1-22.07,21.29-34.7,28.62-41.27c-3.1,23.91-12.37,54.07-14.32,75.58l-3.34,36.73c-.99,10.91-1.45,20.83.06,32.66,3.61-4.49,5.13-8.8,6.49-13.83l3.69,7.82,1.19-19.72,1.39,10.36c.32,2.36,1.6,4.96,2.61,7.22,1.74,3.9.69,8.01,3.5,11.99l.61-14.59c2.2,6.29.02,13.01,6.48,17.74,4.04-11.41,2.46-16.51,5.58-26.33,2.44,6.64,4.12,10.89,8.81,15.78l5.03-7.48,6.17-1.1c-.23-12.07,1.35-23.51,3.21-35.5l4.07-26.24c4.09-26.39,9.22-51.75,14.76-78,3.99-18.91,5.21-37.47,7.4-56.57,2.35-20.5,8.23-14.24,2.41-35.84l-7,5.95-4.35-8.65-4.59,4.96c.32-6.05,1.09-10.11-2.49-14.98l-5.38,6.32-1.37-8.27-8.6,11.86-.26-8.29-8.5,13.77c-2.07-2.46,3.59-11.79-2.45-12.74-2.64-.41-3.01,1.38-4.81,3.38l-21.23,23.74c-5.2,5.82-7.97,13.29-12.25,19.89l-29.35,45.35-30.5,50.49c-2.82,4.66-5.01,8.62-8.94,13.51l-.62-48.68c-.17-13.72-1.68-26.89-3.13-40.35l-1.88-17.56c-.63-5.91-2.21-11.85-4.56-16.86l-5.64-.97-1.25-5.61c-.26-1.18-4.25-2.26-4.82-1.2l-2.99,5.53-2.1-3.28-2.79,3.23c-.72-3.22-6.32-7.03-8.12-5.04-10.38,11.4-5.39.58-13.59,15.51l-2.7-11.76-7.38,10.26c-5.95,8.28-10.29,17.32-14.3,26.88l-25.61,61.14-24.16,56.1-23.01,55.9c-3.32,8.07-7.26,15.02-7.84,24.34,2.64-2.81,4.03-5.15,5.9-7.69l-4.12,13.05c-.29.91,1.16,4.47,2.06,4.3l4.36-.86.92,8.08c.21,1.8,1.99,4.35,3.7,4.02,3.05-5.3,7.33-9.72,12.02-12.75.46,3.78.98,6.1,2.94,8.14,4.29-2.85,6.96-5.51,9.87-8.98l.16,5.94,4.09,7.86c3.56-1.87,6.76-4.77,8.14-8.51l20.95-57.08c4.84-13.19,9.98-25.5,15.66-38.7ZM351.65,1661.52c11.75-3.5,22.45-9.04,33.28-14.79,14.03-7.45,26.54-16.88,38.79-26.94,11.11-9.12,18.93-20.39,24.6-33.58,6.27-14.59,4.38-36.69-7.22-47.3-7.32-6.7-14.92-12.71-23.86-17.12-25.74-12.69-52.7-20.08-80.53-26.47-6.43-1.48-30.46-7.72-23.05-17.61,11.53-15.39,45.48-36.6,63.16-44.9l22.54-10.58c6.66-3.13,12.75-4.95,20.24-6.28l6.05,13.05c1.9.27,3.48-2.35,5.68-5.23-.77,10.19-3.9,13.08-.88,22.82l13.91-17-2.29,7.89c5.36,1.23,5.28-3.43,9.36-6.54l-3.51,8.2-.13,1.86c-.03.49,1.54,1.38,1.81.97l1.36-2.11c2.79-4.34,5.56-8.2,8.97-12.17-6.85,13.79-5.22,15.25-10.68,29.88,4.14-2.83,6.67-6.19,9.7-9.68l16.7-19.25c10.06-11.6,22.87-21.34,23.24-39.72.23-11.34-6.85-17.66-14-24.81-5.83-2.98-12.77-4.51-18.03-7.84-7.91-5.01-15.82-7.95-25.36-7.97-27.7-.06-56.44,14.41-82.15,25.82-12.39,5.5-23.43,11.98-34.68,19.37l-24.91,16.38c-13.5,8.87-25.55,18.44-36.98,29.87-3.65,3.65-7.97,6.72-11.21,10.65-7.74,9.38-12.65,19.85-17.53,30.72-2.16,4.81-2.6,7.46-1.17,13.01,8.04,31.33,22.49,22.07,52.68,41.37,20.19,12.9,44.74,19.09,68.02,23.92,3.78.78,32.89,7.43,31.48,10.85-1.75,4.25-25.5,18.11-31.24,20.45-17.53,7.13-34.67,12.41-52.93,17.06-15.26,3.88-30.78,4.59-46.17,3.88-13.34-.62-24.84-12.29-25.4-10.23l-.71,2.55-1.83-5.93c-3.25-.91-6.25,2.62-7.16,5.67h-4.48c-2.26.57-3.65,5.7-2.69,7.69l3.36,6.94c-3.46-2.02-4.65-6.34-6.43-8.62-1.26-.57-4.19.13-5.08,1.15-4.37,4.99,4.14,14.37,6.62,18.96-17.87,6.94,17.91,28.31,24.29,32.86,8.58,6.11,17.1,10.94,27.67,12.15,7.43.85,14.43,1.29,22.21.09,22.57-3.47,44.71-6.9,66.62-13.42ZM564.37,1581.11l52.11-17.63c3.61-1.22,6.78-2.2,10.93-3.43l.73,27.05c.36,13.27,2.64,26.1,7.03,38.77,1.93,1.76,7.54,2.53,9.06.9l2.39-11.94,1.99-14.98.74,16.15,2.49,4.85c1.57,3.06,2.49,4.94,5.3,7.83l.66-7.84c1.91,4.32,5.98,13.65,11.17,11.33.89-11.66,4.15-14.39,3.3-25.3,4.75,4.06,2.86,16.01,6.17,14.74,6.31-2.42,8.42-12.31,7.97-19.55-.42-6.81.13-13.23.24-20.07.28-16.82-.61-33.16-1.4-49.97l-.71-15.14-1.29-61.76-.55-23.15c-.3-12.63-.67-24.8-2.24-37.23-.92-7.27-5.03-12.6-9.25-17.8-1.13-1.39-.1-6.74-4.14-5.16l-2.32.91c-1.85.72.61-7.74-21.22,1.76-18.79,8.17-30.78,3.34-37.04,11.19-11.41,14.3-21.28,29.24-31.09,44.83l-26.27,41.75-22.35,36.5-14.82,24.43c-7.16,11.81-14.12,23.11-20.65,35.32l-16.69,31.18c-3.58,6.68-5.98,13.77-8.02,21.09l5.47,5.09-4.51,9.77c-.49,1.06-.53,3.44.24,4.1s3.49-.1,4.39-.69l4.28-7.6-.98,9.59c3.86-3.47,6.51-5.82,9.29-9.02l7.14-8.23c.03,6.57-5.9,7.22-.49,13.64l-3.83,10.25c-.42,1.11,1.14,4.04,2.07,4.47l13.08-17.63-5.28,14.41c3.41,5.2,16.42-17.61,18.57-20.99,8.16-12.87,15.82-25.28,23.3-38.53l25.03-8.24ZM351.92,1777.45c4.12,2.89,8.33,3.33,12.77,2.18,20.76-5.39,41.09-8.88,62.23-12.77l55.03-10.13,35.93-7.18,135.68-23.23,235.98-35.53,131.67-17.24,179.82-21.59,129.93-13.15,66.15-6.65,182.82-12.95c23.42-1.66,45.35-2.89,68.49-5.77l52.44-6.53c.51-.06,2.27-.68,2.73-.84.29-.1-.02-.67-.29-1.24l-23.38.03-3.4.03c-.3,0-.11-.27.26-.83l8.09-1.82c.27-.06,1.07-1.19.8-1.26s-1.69-.64-2.15-.63l-24.48.5-90.26,4.52-58.87,1.54c4.55-.79,9.12-1.66,14.15-1.99l78.81-5.26,29.96-2.16c29.7-2.14,58.73-3.75,88.48-8.25-9.75-4.36-27.54,1.39-35.52-.87,15.75-2.59,30.56-2.49,46.14-3.15,16.32-.7,31.72-1.47,48.12-1.19,11.33.19,20-4.99,15.02-4.86-14.3.4-16.21-1.04-31.12-1.24l-2.37-.03c-.35,0-.45-.72-.09-.72.66.01,2.14.13,2.79.1l66.35-3.12c2.27-.11,9.04-3.02,5.84-3.36-.5-.05-1.87-.21-2.56-.23l-24.91-.64-2.09-.03-2.39-.04c-.34,0-.39-.46-.08-.66,2.16-1.36,32.6-1.83,40.22-2.43l18.02-1.41c.43-.03,1.83-.6,3.23-1.16-4.72-.91-9.58-2.09-14.88-2.2l-31.56-.65c-22.99-.47-44.53.7-67.35,1.4l-80.04,2.45-29.07,1.2-112.38,7.11-99.29,6.88-208.17,17.68-29.34,3.47-121.4,11.7-64.58,7.21-122.76,14.5-54.98,6.04-77.23,9.72-75.96,10.36-164.86,26.89-108.34,19.67c-7.21,1.31-42.52,10.99-50.13,15.38,2.33,1.19,4.3,1.61,6.39,1.3l30.27-4.39c-4.68,2.17-9.13,3.08-14.15,4.14-11.85,2.52-39.58,12.65-43.87,24.63,6.42-1.19,10.72-3.72,17.01-2.37l-12.79,5.27c-1.69.7-2.38,3.04-2.21,5.06-3.85,3.04-8.17,6.61-8.91,12.38,9.51.64,15.79-4.56,25.96-3.86-4.53,2.23-8.3,4.25-12.94,5.94l-12.73,4.62c-1.13.41,1.68,3.91,2.91,3.94,10.26.25,14.56,1.23,23.4-2.22Z"/>
      <path d="M351.92,1777.45c-8.83,3.45-13.13,2.46-23.4,2.22-1.24-.03-4.05-3.52-2.91-3.94l12.73-4.62c4.64-1.68,8.41-3.7,12.94-5.94-10.17-.7-16.45,4.5-25.96,3.86.75-5.76,5.07-9.34,8.91-12.38-.17-2.02.52-4.36,2.21-5.06l12.79-5.27c-6.29-1.35-10.59,1.18-17.01,2.37,4.29-11.99,32.02-22.12,43.87-24.63,5.03-1.07,9.48-1.97,14.15-4.14l-30.27,4.39c-2.09.3-4.06-.11-6.39-1.3,7.61-4.38,42.92-14.07,50.13-15.38l108.34-19.67,164.86-26.89,75.96-10.36,77.23-9.72,54.98-6.04,122.76-14.5,64.58-7.21,121.4-11.7,29.34-3.47,208.17-17.68,99.29-6.88,112.38-7.11,29.07-1.2,80.04-2.45c22.83-.7,44.37-1.87,67.35-1.4l31.56.65c5.3.11,10.16,1.29,14.88,2.2-1.4.56-2.79,1.12-3.23,1.16l-18.02,1.41c-7.62.6-38.06,1.07-40.22,2.43-.3.19-.26.65.08.66l2.39.04,2.09.03,24.91.64c.69.02,2.06.17,2.56.23,3.21.34-3.57,3.26-5.84,3.36l-66.35,3.12c-.65.03-2.13-.09-2.79-.1-.36,0-.27.71.09.72l2.37.03c14.91.21,16.82,1.64,31.12,1.24,4.98-.14-3.69,5.05-15.02,4.86-16.4-.28-31.8.49-48.12,1.19-15.58.67-30.39.56-46.14,3.15,7.99,2.26,25.78-3.49,35.52.87-29.75,4.5-58.78,6.11-88.48,8.25l-29.96,2.16-78.81,5.26c-5.03.34-9.6,1.2-14.15,1.99l58.87-1.54,90.26-4.52,24.48-.5c.46,0,1.89.55,2.15.63s-.53,1.2-.8,1.26l-8.09,1.82c-.37.56-.57.83-.26.83l3.4-.03,23.38-.03c.26.57.57,1.14.29,1.24-.45.16-2.22.78-2.73.84l-52.44,6.53c-23.14,2.88-45.07,4.11-68.49,5.77l-182.82,12.95-66.15,6.65-129.93,13.15-179.82,21.59-131.67,17.24-235.98,35.53-135.68,23.23-35.93,7.18-55.03,10.13c-21.13,3.89-41.47,7.38-62.23,12.77-4.44,1.15-8.65.71-12.77-2.18Z"/>
      <path d="M358.06,1328.62c-27.39,19.14-57.4,32.17-88.85,41.52-5.72,1.7-11.13,1.76-16.56,2.47-13.8,1.81-26.79,2.03-40.48-.67-9.5-1.87-19.38-3.1-27.44-8.66l-15.43-10.64c-6.98-4.82-15.22-8.53-17.9-18.24,1.96-1.28,6.1-1.53,9.3-1.65-9.13-12.39-12.49-26.93.91-37.18.57,4.18-1.69,6.99,1.61,9.26,3.55-15.22,1.15-8.4,10.97-17.57,2.46-2.3,4.39-5.15,8.32-5.15-1.67,3.99-10.95,19.71-8.65,23.29.19.29,1.21.59,1.3.26l.52-1.9c.32-1.15,2.1-3.65,3.08-4.27,9.48,6.12,8.42-.32,23.94,3.9,3.73,3.91,8.47,6.91,14.3,6.81,37.61-.65,67.43-6.83,99.74-26.51,7.1-4.33,31.87-17.37,22.85-26.39-11.27-11.27-37.32-16.09-53.38-19.67l-30.31-6.75c-11.28-2.51-22.92-4.96-32.96-11.02-13.47-8.14-24.71-19.18-33.35-32.35-3.02-4.6-4.25-11.36-5.24-16.9-.77-4.32,2.29-9.26,3.93-13.14,3.73-8.83,6.24-17.75,11.47-25.79,7.89-12.14,16.67-23.95,28.02-32.77l14.12-10.97c13.17-10.24,25.8-20.05,39.83-29.07,12.35-7.93,23.82-16.18,36.64-23.32l37.23-20.72c25.66-14.28,64.46-35.62,94.5-28.55,9.14,2.15,14.54,12.63,20.95,18.38l7.98,7.17,5.73,5.74-1.32-7.66c5.16.6,6.2,4.75,6.51,7.91,1.22,12.69-3.63,23.16-9.4,33.65-5.64,10.26-10.54,20.46-18.4,29.62-5.27,6.14-9.92,12.66-15.59,18.5l-16.61,17.11c-.71.73-3.07,1.68-4.06,1.93l9.88-17.85c2.29-4.14,4.85-7.49,7.17-12.54l-10.3,9.91c-1.75-3.43,8.21-10.36,6-13.92-4.98,3.74-7.84,6.22-12.13,8.73l4.17-10.88-6.2,8.06-15.93,15.38c2.54-13.3,16.82-30.81,15.27-43-.51-4-3.85-6.29-6.84-6.03-4.08.34-5.62,2.76-6.1,7.59-3.75.97-8.21,1.77-11.98,2.12-16.07,5.87-31.22,15-46.84,23.83-11.98,6.78-22.71,14.23-33.78,22.28-6.45,4.69-33.59,29.69-35.63,34.3l-8.98,20.28c4.46,2.96,8.67,4.5,13.45,6.12l34.03,11.52c10.46,3.54,20.94,4.97,31.29,9.17,14.96,6.06,28.53,14.7,40.61,25.33,5.01,4.41,12.6,17.47,13.63,23.98,1.2,7.6,1.7,15.37-.24,22.84-3.31,12.75-8.93,25-17.92,34.69-9.42,10.15-18.65,19.79-30.5,28.07Z"/>
      <path d="M351.65,1661.52c-21.91,6.51-44.05,9.94-66.62,13.42-7.78,1.2-14.78.76-22.21-.09-10.57-1.21-19.09-6.03-27.67-12.15-6.38-4.55-42.16-25.91-24.29-32.86-2.48-4.59-10.99-13.97-6.62-18.96.9-1.02,3.83-1.73,5.08-1.15,1.78,2.28,2.97,6.6,6.43,8.62l-3.36-6.94c-.96-1.99.43-7.12,2.69-7.68h4.48c.91-3.06,3.92-6.59,7.16-5.68l1.83,5.93.71-2.55c.57-2.06,12.07,9.61,25.4,10.23,15.39.72,30.91,0,46.17-3.88,18.26-4.65,35.4-9.93,52.93-17.06,5.74-2.33,29.49-16.2,31.24-20.45,1.41-3.43-27.69-10.07-31.48-10.85-23.28-4.83-47.83-11.02-68.02-23.92-30.19-19.29-44.64-10.04-52.68-41.37-1.43-5.55-.99-8.2,1.17-13.01,4.88-10.87,9.79-21.34,17.53-30.72,3.24-3.93,7.56-6.99,11.21-10.65,11.43-11.43,23.49-21,36.98-29.87l24.91-16.38c11.25-7.4,22.3-13.87,34.68-19.37,25.71-11.41,54.45-25.88,82.15-25.82,9.54.02,17.45,2.97,25.36,7.97,5.26,3.33,12.2,4.86,18.03,7.84,7.15,7.15,14.23,13.47,14,24.81-.37,18.38-13.18,28.12-23.24,39.72l-16.7,19.25c-3.03,3.5-5.56,6.85-9.7,9.68,5.46-14.63,3.84-16.09,10.68-29.88-3.41,3.97-6.19,7.83-8.97,12.17l-1.36,2.11c-.26.41-1.84-.48-1.81-.97l.13-1.86,3.51-8.2c-4.08,3.11-4,7.76-9.36,6.54l2.29-7.89-13.91,17c-3.02-9.74.11-12.63.88-22.82-2.2,2.88-3.78,5.5-5.68,5.23l-6.05-13.05c-7.49,1.33-13.58,3.15-20.24,6.28l-22.54,10.58c-17.68,8.29-51.64,29.51-63.16,44.9-7.41,9.89,16.62,16.14,23.05,17.61,27.83,6.38,54.78,13.78,80.53,26.47,8.94,4.41,16.54,10.42,23.86,17.12,11.6,10.62,13.49,32.71,7.22,47.3-5.67,13.19-13.49,24.46-24.6,33.58-12.25,10.06-24.76,19.49-38.79,26.94-10.83,5.75-21.53,11.29-33.28,14.79Z"/>
      <path d="M794.58,1512.04c-5.69,13.2-10.82,25.51-15.66,38.7l-20.95,57.08c-1.37,3.74-4.58,6.65-8.14,8.51l-4.09-7.86-.16-5.94c-2.92,3.47-5.58,6.13-9.87,8.98-1.97-2.04-2.49-4.36-2.94-8.14-4.69,3.03-8.97,7.45-12.02,12.75-1.72.32-3.5-2.22-3.7-4.02l-.92-8.08-4.36.86c-.9.18-2.35-3.38-2.06-4.3l4.12-13.05c-1.87,2.55-3.26,4.89-5.9,7.69.59-9.32,4.52-16.27,7.84-24.34l23.01-55.9,24.16-56.1,25.61-61.14c4-9.56,8.35-18.6,14.3-26.88l7.38-10.26,2.7,11.76c8.2-14.93,3.21-4.12,13.59-15.51,1.81-1.99,7.41,1.83,8.12,5.04l2.79-3.23,2.1,3.28,2.99-5.53c.57-1.06,4.56.02,4.82,1.2l1.25,5.61,5.64.97c2.35,5.01,3.93,10.95,4.56,16.86l1.88,17.56c1.44,13.46,2.95,26.64,3.13,40.35l.62,48.68c3.93-4.89,6.12-8.84,8.94-13.51l30.5-50.49,29.35-45.35c4.27-6.61,7.04-14.08,12.25-19.89l21.23-23.74c1.8-2.01,2.16-3.8,4.81-3.38,6.04.95.38,10.27,2.45,12.74l8.5-13.77.26,8.29,8.6-11.86,1.37,8.27,5.38-6.32c3.58,4.86,2.81,8.93,2.49,14.98l4.59-4.96,4.35,8.65,7-5.95c5.82,21.6-.07,15.33-2.41,35.84-2.19,19.1-3.41,37.66-7.4,56.57-5.54,26.24-10.67,51.61-14.76,78l-4.07,26.24c-1.86,11.99-3.44,23.43-3.21,35.5l-6.17,1.1-5.03,7.48c-4.69-4.89-6.37-9.14-8.81-15.78-3.12,9.82-1.54,14.92-5.58,26.33-6.47-4.73-4.28-11.44-6.48-17.74l-.61,14.59c-2.81-3.98-1.75-8.09-3.5-11.99-1.01-2.26-2.29-4.86-2.61-7.22l-1.39-10.36-1.19,19.72-3.69-7.82c-1.36,5.03-2.88,9.34-6.49,13.83-1.51-11.84-1.05-21.75-.06-32.66l3.34-36.73c1.95-21.51,11.23-51.67,14.32-75.58l-28.62,41.27-21.29,34.7-14.1,22.07c-6.21,9.72-12.77,18.46-18.83,28.46-2.41,3.97-5.95,9.07-9.6,11.8-5.71,4.28-14.8-.46-15.92-7.08-1.78,1.15-3.07,2.19-4.06,2.56-1.16.43-3.83-.97-5.36-1.41l-1.75,2.46c-2.38,3.35-7.69-11.85-8.25-19.18l-2.67-34.85-1.09-22.45-1.02-39.29c-3.18,4.59-4.83,8.95-6.83,13.58l-16.68,38.73Z"/>
      <path d="M1110.88,1347.08c7.42-11.29,12.69-24.5,25.12-31.85,4.71,4.83-1.4,7.55-2.27,13.56l5.95-5.75-3,10.7c-5.4,19.28-10.99,37.68-18.51,56.34-8.75,21.7-19.72,57.96-25.25,80.83-2.1,8.68-2.91,17.06-2.99,26.1-.06,7.54-.36,24.05,10.06,23.16,15.99-1.36,28.61-10.98,36.95-24.41,9.82-15.79,17.55-31.93,24.57-49.27l23.31-57.55,8.33-23.83,15.82-42.15c2.82-7.52,6.66-13.98,11.52-20.19,4.02,4.3-2.05,9.93-1.62,15.25,2.59-4.12,4.18-7.56,8.66-10.44l-2.81,8.63,5.42-7.26c2.77-3.71,7.8-9.18,12.63-9.41,7.97-.37-3.5,19.53-2.77,24.78,6.97-6.85,13.21-26.4,22.7-25.75-2.6,7.61-5.12,13.77-6.5,21.41,4.49-4.49,6.3-8.51,9.54-13.1.55,8.58-5.04,28.38-7.88,37.06l-27.05,82.83c-5.85,17.91-11.29,34.96-18.67,52.33-16.54,38.9-24.08,58.84-62.38,80.77-30.75,17.61-67.2,19.04-98.51,1.81-12.24-6.74-20-18.46-21.44-32.72-4.12-40.65,5.02-60.02,16.77-97.35l14.89-47.32c7.55-23.99,16.52-54.25,30.06-75.23,2.08,3.15.64,5.57-.3,9.73l6.01-5.27c.72,1.42,1.53,3.92,1.32,5.02l-2.42,12.74,11.99-14.33c.86-1.03,4.33-2.35,4.44-1.62l.13,5.57,3.77-8.6c2.25,3.81,3.34,5.8,5.47,8.51-4.26,7.66-8.59,16.63-11.09,26.25Z"/>
      <path d="M1581,1459.46c-10,2.89-18.59,5.95-28.94,7.97l-21.38,38.28c-5.89,10.55-12,20.98-23.18,27.83.69-6.36,3.57-10.99,5.44-16.47l-13.84,16.91c-6.21-5.85,6.09-9.02-2.85-13.45l10.06-19.65c-4.38,3.38-5.72,8.29-9.15,12.28l-4.62,5.39-7.71,8.39c-1.25.27-3.94-3.25-3.5-4.8l4.47-15.83-7.5,10.36c-2.81-10.45.14-19.55,4.59-28.02l19.6-37.29,50.69-86.14,36.5-59.57c5.41-8.83,11.06-16.56,17.18-24.95,4.4-6.02,8.95-13.36,15.46-17.27,9.21-1.02,19.23-.69,28.01-4.55s16.24-6.07,25.86-2.91c3.16,1.04,6.02,1.76,6.93,6.26,3.3,16.34,4.93,32.81,5.69,49.85l2.95,66.87.88,46.12,1.61,62.96c.1,4.04-.45,6.54-2.14,10.09-2.13,4.45-3.7,8.19-6.49,12.24-6.48-4.96-4.41-10.03-8.74-16.35-3.86,3.19-4.12,6.51-5.04,10.89l-1.83,8.73c-3.64.88-8.23,1.2-10.18-1.06-.5-.58-.72-3.66-1.4-3.49l-3.48.86-1.5-9.05-3.56,10.96c-8.65-5.49-10.14-41.71-10.9-50.88l-1.58-19.08-37.95,12.25-18.46,5.32ZM1627.76,1402.48l9.39-1.83-1.6-27.69c.31-4.83.74-9.98.6-14.93l-.83-28.79-13.47,18.6-20.3,31.61-22.42,34.57,48.64-11.55Z"/>
      <path d="M1356.16,1162.42c-8.55-1.95-20.15,3.43-24.16.33,4.81-6.14,10-10.96,16.84-13.39l-4.64-1.86c-.78-.31,1.53-3.48,1.89-3.23,3.07,5.83,8.85,2.84,14.08,1.35-6.41-1.74-10.21.85-15.76-3.73-4.21-3.47,13.35-9.14,12.85-9.06l32.68-5.27,42.77-7.82c3.05-.56,6.32-.37,9.4-.1l4.22.37c1.15.1,2.58,3.35,1.84,4.37-1.64,2.24-4.92,4.14-8.25,6.18,1.11,1,3.49,1.49,6.74,1.81-2.49,11-7.21,21.41-12.65,31.65-13.21,24.85-20.36,38.87-40.06,59.86-6.69,7.12-14.38,11.69-23.07,16-29.48,14.6-68.69,23.77-99.48,8.6-13.44-6.63-26.47-19.43-27.26-35.46-1.51-30.68.08-42.41,11.01-71.01,6.75-17.64,16.72-32.99,27.31-48.41,9.35-13.61,19.97-25.23,32.27-36.08,13-11.47,25.98-20.85,42.12-27.53,12.68-5.25,25.13-9.82,39.22-10.34,18.43-.69,36.97,4.61,49.25,19.11,3.99,4.71,4.91,14.14,4.32,20.11-1.29,13.21-13.83,19.69-17.49,30.38l-7.45,3.84c-1.24-4.53-.32-6.91,2.31-11.59-3.69.34-12.44,7.77-13.33,6.14l-1.5-2.75-10.36,7.63-2.43-5.46c2.58-10.15.41-6.15.26-16.43-.01-.7-2.6-1.15-2.99-1.83-6.96-11.94-30.98,2.24-38.93,9.21-15.66,13.74-29.21,30.16-39.04,48.66-11.48,21.62-21.65,50.44-18.18,74.73.49,3.44,3.78,7.24,7.44,6.81,26.42-3.11,35.6-5.2,53.6-24.59,3.13-3.38,5.7-5.49,9.55-8.77l-13.14,1.46c-4.21.47-8.05-1.12-11.99-1.97l-16.34-3.54c7.85-5.71,17.29-3.8,26.54-8.36Z"/>
      <path d="M1723.6,1120.25c-2.09.53-4.71,2.17-6.44,3.23l-14.88,39.72c8.11-2.45,14.25-4.44,21.39-5.81l28.97-5.58,50.42-7.53c3.26-.49,7.56-.51,10.41.2l8.63,2.14c4.9,10.41-8.34,9.3-11.74,16.92,5.13.02,9.26-.15,10.63,4.91.47,1.74-2.78,3.84-4.57,4.72-16.99,8.43-17.81,14.62-32.87,17.48-23.28,4.41-45.95,8.46-68.92,14.31l-47.33,12.06-7.58-3.25,2.46-3.51-7.16-4.18c-.76-.38-3-.14-3.26-.97l-1.36-4.37c-1.83.73-3.61.9-4.8-.01-1.8-1.38-3.74-4.65-3.16-6.63l11.84-39.91,4.68-21.17c2.37-10.72,7.65-19.96,11.93-30.2,10.59-25.33,21.27-49.93,29.64-76.1,4.19-13.09,7.87-25.59,15.1-37.21,2.19-3.52,7.7-3.22,11.38-3.66,13.23-1.59,25.9-2.4,38.86-5.15l42.67-9.06c11.24-2.39,22.03-4.29,33.47-5.99,4.51-.67,8.93.31,12.69,3.03-5.31,3.94-9.6.81-15.92,6.5l17.88-2.47,7.37,1.48,6.13,4.69c-2.43,9.16-14.16,4.33-21.12,16.03,4.56-.6,7.83-.96,12.46,1.5l-3.99,3.78,2.26,2.19-9.25,4.76c-.46.23.06,2.3.58,2.3,5.12.08,1.95-3.33,8.09-1.99-3.52,6.39-9.43,5.75-15.25,6.53-16.39,2.18-31.87,6.11-47.99,9.73-7.35,1.65-44.08,8.85-45.99,14.39l-12.17,35.21c26.49-6.25,49.98-11.86,75.4-14.01,6.76-.57,14.2-.95,19.92,2.68,3.14,1.99.14,6.61-2.24,7.76-3.39,1.64-5.61,3.59-8.34,6.34l7.16,2.31-5.7,7.69c-14.91,9.59-30.74,16.58-48.01,20.94l-52.38,13.22Z"/>
      <path d="M1501.62,1187.43c27.6-8.68,54.28-12.33,82.13-13.93,14.19-.81,23.3-3.83,36.05,1.61,1.43.61,1.02,5.54-.43,6.23-5.97,2.82-17.04,6.44-17.09,9.29l15.42-2.47c.56.33,2.05,2.03,2.6,2.76l-9.08,5.46,6.75.3-3.97,9.27c-9.89,2.24-19.03,4.17-28.05,7.9s-10.22,4.5-20.44,6.76l-96.64,21.31c-5.16,1.14-6.68-1.85-10.53-4.06-11.28-6.48-6.23.83-12.29-17.82-3.19,6.31.25,10.85-6.51,11.38-2.03-13.43,10.97-42.19,16.4-57.44l27.13-76.25,11.53-32.35,17.13-47.84c1.01-2.83,4.39-7.94,7.1-8.04,9.62-.36,17.39-1.54,26.46-2.94l27.95-4.33,33.43-6.89c13.4-2.76,19.42-4.51,33.28,2.46l-30.63,6.64c3.13,1.4,6.47-.35,10-.9,9.99-1.56,19.4-1.98,29.63-1.76l9.53,7.63-24.11,5.83c11.67-.66,23.2-3.54,34.74-2.43l2.09,5.5-26.08,9.13c2.66,1.82,5.46.55,7.8.64.89.05,3.5,2.01,2.93,2.76l-4.32,5.72c-8.02,1.86-15.4,3.03-23.61,4.34-18.51,2.96-36.33,7.33-54.49,11.44l-20.28,4.59-13.75,37.48c.72.77,3.22,1.51,4.37,1.27l47.97-9.84c11.91-2.44,27.27-4.16,39.11-1.9-2.28,3.51-4.7,5.55-8.1,8.19l1.16,8.8c3.92-1.05,5.89.5,6.87,3.1,1.38,3.67-1.43,4.81-4.49,6.2l-11.54,5.25-16.35,6.84-3.63,3.41c-24.91,8.39-49.88,13.93-75.94,19.16l-17.2,42.5Z"/>
      <path d="M749.91,1101.43c2.62,1.59,2.02,4.12,2.44,8.24l4.99-3.48-3.41,9.93-13.91,41.08c-11.31,33.4-36.2,81.23-29.13,114.88,1.02,4.85,4.99,7.5,10.13,6.81,10.94-1.46,19.57-8.05,26.72-16.16,4.52-5.13,8.81-9.94,12.55-15.66,7.7-11.79,14.65-23.4,20.53-36.28,6.75-14.78,14.19-28.77,19.63-44.23l20.29-57.73c2.63-7.47,6.08-18.02,11.72-22.6.72-.59,3.43.97,3.25,1.64l-1,3.64c-.87,3.18-2.23,6.14-.92,9.36l6.39-12.78-1.58,11.35-3.86,1.45-4.93,9.99c1.52.17,3,.34,3.18-.25s.52-2.62,1.01-3.3l15.06-21.04c.63-.88,3.89-1.95,4.15-.99l1.24,4.53c1.67-3.85,2.96-10.44,8.78-8.66.73.22.09,1.96-.43,2.74-3.14,4.64-5.76,9.49-5.66,15.11l11.7-17.56c.48-.72,2.35-1.44,2.98-1.64,4.29-1.37-2.18,13.62-1.39,17.62l6.35-6.76c-.96,9.12-2.65,17.54-5.54,26.28l-9.75,29.41-12.36,40.5c-5.98,19.6-12.9,38.06-23.71,55.5-8.63,13.92-16.58,27.56-26.87,40.21-5.72,7.03-11.35,13.86-18.46,19.48-12.22,9.66-25.74,17.2-40.55,22.23-5.61,1.9-12.55.41-17.99,1.39-15.39,2.77-29.18-.98-41.62-9.52-17.14-11.76-26.19-29.32-26.67-49.95-.25-10.67-.72-20.4,2.98-30.86l15.18-42.99c5.33-15.1,10.18-29.58,16.66-44.15l12.9-29.03c3.25-7.31,6.51-14.46,11.81-20.29l5.63.87c1.74-.82,3.73-1.45,4.53-1.2l-1.82,15.65,7.76-12.81c.51-.85,4.22-1.96,4.42-1l1.13,5.38c2.83-3.93,5.42-8,11.08-9.81l-9.43,26,13.81-20.57Z"/>
      <path d="M911.8,1233.21c-3.9,8.84-7.1,16.88-9.66,25.93,7.65-2.13,13.13-3.8,19.78-5.21l37.08-7.9c14.31-3.05,27.8-5.03,42.36-5.66l-4.14,4.44c5.77.2,12.2.74,17.65,1.67.94,4.42-2.27,7.38-5.25,8.87l-7.69,3.84,12.16,1.56c-2.47,3.49-5.41,5.07-9.26,6.91l7.27,1.6c-1.1,1.12-2.66,2.57-3.76,2.96-6.75,2.39-13.12,4.78-19.53,7.73-10.86,5-22.35,7.26-34.06,10.03l-31.61,7.47-43.46,11.31c-3.48.91-8.71,2.5-10.35-1.37l.27-3.69c.26-3.65-4.75,3.88-7.16,4.01-1.25.07-4.37-.84-5.33-1.66-7.79-6.58-7.07-5.22-9.3-11.79l-6.11,6.9c-6.06-6.88,2.28-25.74,4.93-32.59l16.17-41.84,23.88-62.97c7.12-18.77,14.57-36.74,19.62-56.15,1.84-7.05,7.14-27.36,18.53-24.16,3.52.99,6.56,1.32,10.2.69l34.02-5.93,34.13-7.02,39.63-7.66c3.3.04,8.77,1.83,12.62,2.92,1.36,6.69-4.96,6.94-9.87,9.75l15.88-2.19,4.75,7.33-21.48,10.86,24.51-4.07c1.05-.17,2.73.1,3.48.54,4.14,2.45-6.65,8.46-9.33,9.25l-15.58,4.56c4.4.54,7.33-.21,11.81-1.46,1.48,6.02-11.9,8.26-16.69,9.04-23.59,3.86-46.07,10.16-69.33,15.38l-22.16,4.98-11.06,30.22c-.82,2.25-1.4,5.72.6,7.23l21.93-4.3,32.05-5.99c3.42-.64,31.02-5.15,30.56-.72l-.37,3.54,8.03-2.35c.03,4.32-2.84,5.58-6.88,7.86l4.07.86-10.35,5.58c4.65.81,7.94-.24,12.29-2.13.64,1.15,1.81,5.31.66,6.46-10.02,9.99-4.71,7.68-22.57,13.47-5.75,1.86-10.5,5.04-15.95,7.21-8.92,3.54-18.5,5.87-27.87,8.14l-34.71,8.41c-18.04,4.37-13.21,3.76-20.07,19.29Z"/>
      <path d="M1148.51,1182.04l-30.98,7.35c-4.56,1.08-5.74,3.87-7.15,7.78l-12.62,35.13,21.75-4.44c11.87-2.42,23.47-4.05,35.59-5.34l50.15-5.36c2.73,6.68,7.04,1.04,11.04,4.87.93.89,1.02,4.7-.19,5.1-6.35,2.11-14.35,4.41-20.28,7.44,8.35-.21,12.25-1.54,20.25-3.75-.29,5.73-4.73,6.16-9.37,8.89l7.54,1.18c-5.71,9.82-12.89,7.23-22.13,11.46s-15.18,9.63-22.35,11.21l-42.72,9.37-49.87,11.71c-19.1,4.49-18.33-5.69-22.59-6.41-5.31-.9-8.88-4.41-8.75-12.07l-5.31,6.67c-1.53-.61-3.1-3.58-2.6-5.88,6.1-28.29,19.78-74.46,31.21-100.82,12.21-28.16,22.09-56.57,32.3-85.5,2.23-6.32,4.48-12.08,7.46-17.8,4.22-8.1,15.76-4.64,22.24-5.69l18.97-3.06,54.71-9.27c5.75-.97,11.32-1.23,16.75.59l9.82,3.29-31.49,6.3,1.44,1.56c8.09-3.27,24.48-4.59,32.84-4.14l16.34.89-7.37,5.36c7.34.22,10.5-4.52,17.55-.72-5.13,9.6-19.1,3.06-19.59,12.08l10.12-1.23c1.44-.17,4.16,1.41,4.73,2.72s-1.21,4.42-2.58,4.79l-13.68,3.61,7.44,3.79c-1.38.53-3.79,1.41-5.72,1.71-23.62,3.66-46.32,8.13-69.59,13.44l-25.56,8.84-12.18,32.59,59.78-10.49c8.21-1.44,16.81-2.48,24.7,0,2.05.65,3.12,1,5.69,1.43l3.63,6.11c-6.84,2.84-11.86,4.95-18.22,8.93,2.56,2.18,10.51-3.51,12.78-.89l-2.76,5.58c2.78,1.36,3.78,1.57,5.41,3.67-12.56,5.72-26.79,10.97-38.52,15.59-1.47.58-3.5,3.25-4.86,3.59l-33.19,8.23Z"/>
      <path d="M1749.29,1488.3l-1.49,3.05c-.37.76-2.61-.09-2.82-.74-.09-2.31-.55-5.92-1.18-7.79-1.09,3.44-1.3,6.2-3.28,7.93-1.57,1.37-5.41,2.3-7.47,1.45l-2.39-11.54-1.16,4.27c-.34,1.24-1.23,2.79-2.18,3.2s-3.47-2.29-3.32-3.34c1-7.45,3.14-15.24,5.44-22.45l13.33-41.69,18.97-60.76,10.55-35.63,13.25-41.54c3.77-11.8,8.88-22.5,14.85-33.04l2.26,3.46,5.82-9.95,4.11,1.59c.79.31,2.11-.89,3.47-1.7l1.15,7.73c4.09-5.21,9.32-9.78,15.9-12.48l1.53,10.69,9.04-10.3,2.71,5.39,3.02-4.32c3.02,2.33,4.84,6.21,3.99,10.31-2.07,9.96-4.4,19.22-7.44,28.95l-18.36,58.74-16.21,50.6-7.31,23.82c-7.11,23.15-13.56,45.74-22.47,68.39-1.33,3.38-5.8,6.09-7.84,8.97-1.65,2.32-3.92,5.84-5.84,6.87-3.95.84-5.29-4.18-4.28-7.73-3.92-.13-6.55,1.52-10.3,4.5l-1.62-5.88c-.1-.35-1.18-1.58-1.35-1.25l-1.1,2.24Z"/>
      <path d="M543.66,807.34c3.26,1.14,6.53,3.33,9.24,5.74,66.02,58.57,81.68,154.88,81.75,238.27,5.38-18.92,7.04-37.29,8.55-56.34.73-9.15,1.32-17.56,3.38-26.33,2,11.61,2.28,21.93,2.03,32.95-.39,16.91-1.13,33.36-2.77,50.3-.62,6.45-1.85,12.1-1.66,19.17,2.22-4.19,3.72-8.36,4.76-13.19l9.59-44.53c2.57-11.92,4.4-23.36,5.17-35.71,2.97-47.84-3.33-92.76-12.58-139.67l-7.58-38.44c5,7.61,6.78,15.12,9.58,23.51,9.38,33.39,15.36,67.12,17.98,101.81.24,3.22-1.07,6.05,1.5,8.94l3.04-31.03c.71-7.24,1.36-13.86,3.36-21.15,2.09,7.21,2.22,13.8,2.47,21.21.99,28.92-.35,57.04-3.34,86.12-3.2,31.09-9.8,60.48-16.18,90.99-5.11,16.58-8.44,32.38-10.71,50.14-9.62-14.46-22.08-26.29-38.38-33.27,3.81-32.16,5.76-63.57,5.23-95.79l-1.53-22.46c-3.82-56.1-28.82-132.44-72.92-171.24Z"/>
      <path d="M581.62,1072.92l-5.99-21.56c-6.55-23.61-13.39-46.32-21.54-69.53-8.62-24.55-19.49-46.85-33.09-68.92-9.94-16.13-21.1-31.14-36.34-42.47-5.72-4.25-11.51-7.68-16.77-12.28,40.58,7.95,70.23,62.14,85.11,96.95,12.9,30.17,21.74,60.81,26.48,93.23,1.48,8.06,2.87,15.37,2.12,24.57Z"/>
      <path d="M726.15,1078.54c-2.96,1.1-6.25.37-8.9-1.09,13.26-38.73,19.32-78.34,24.99-119.1,2.87,24.61-.7,47.67-4.63,71.25-2.74,16.45-7.08,32.15-11.46,48.95Z"/>
      <g>
        <path d="M1303.76,1530.95c-5.52,13.71-4.85,10.01-14.77,20.61l-1.99-7.63-9.32,10.67c-1.72.75-6.14-2.03-6.27-3.86l-.76-10.72-2.37,12.68c-1.71.4-4.99-.61-6.49-1.82-1.27-1.01-1.2-4.26-.98-6.61l-4.26,3.67c-1.99-1.87-5.29-4.23-6.97-3.48-.69.31-2.44,1.58-3.17,2-1-15.89,2.05-30.8,7.26-45.69l15.78-45.12,12.76-35.84,22.32-65.39,5.67-14.31-23.06,4.78c-.92.19-2.93-.71-2.98-1.45s.58-2.91,1.25-3.29l9.56-5.44c-3.92-3.35-9.37,2.79-13.19,1.49l12.34-12.3c2.28-2.28,4.09-5.6,6.94-7.89,4.35-3.51,8.43-9.16,13.88-10.91l39.62-12.74c37.3-11.99,92.49-15.89,123.55,12.12,14.07,12.69,17.48,30.77,11.35,47.84-1.95,5.42-3.66,10.37-6.79,15.15-4.22,6.45-8.68,12.53-14.44,17.79-21.56,19.71-32,27.45-58.62,40.54,9.26,17.21,18.26,33.73,29.67,49.01,6.08,8.15,12.53,15.28,19.19,22.87,3.89,4.43,8.43,9.37,9.72,14.94-4.83,3.96-2.9,10.26-6.83,10.36-1.47.04-4.22-.66-5.48-1.5l-12.71-8.5,3.57,5.61.66,2.4c.16.58-2.39.47-2.92.11l-9.23-6.34c1.82,5.24,4.44,10.88,4.42,15.26-3.24,4.29-7.32-.78-9.88-1.56-21.52,2.82-34.02-9.79-46.42-25.02-14.27-17.52-25.8-36.22-34.43-57.57l-17.89,7.24-13,42.07c-3.83,12.39-9.41,23.75-14.25,35.78ZM1397.46,1379.98c6.3-4.73,36.1-28.31,33.45-34.19-.46-1.03-2.13-2.6-3.43-3.45-16.27-10.67-38.99-7.5-57.61-2.03-9.64,21.27-16.78,42.72-23.1,65.3,8.9-2.05,16.24-5.57,23.83-9.9,8.98-5.12,18.33-9.31,26.86-15.72Z"/>
        <path class="cls-1" d="M1397.46,1379.98c-8.53,6.41-17.88,10.6-26.86,15.72-7.59,4.33-14.93,7.85-23.83,9.9,6.32-22.58,13.46-44.03,23.1-65.3,18.62-5.47,41.34-8.64,57.61,2.03,1.3.85,2.96,2.43,3.43,3.45,2.65,5.88-27.15,29.46-33.45,34.19Z"/>
      </g>
      <g>
        <path d="M564.37,1581.11l-25.03,8.24c-7.47,13.26-15.13,25.66-23.3,38.53-2.14,3.38-15.15,26.19-18.57,20.99l5.28-14.41-13.08,17.63c-.94-.42-2.49-3.35-2.07-4.47l3.83-10.25c-5.41-6.42.52-7.07.49-13.64l-7.14,8.23c-2.78,3.21-5.44,5.55-9.29,9.02l.98-9.59-4.28,7.6c-.91.6-3.63,1.35-4.39.69s-.73-3.04-.24-4.1l4.51-9.77-5.47-5.09c2.04-7.31,4.44-14.4,8.02-21.09l16.69-31.18c6.53-12.2,13.49-23.51,20.65-35.32l14.82-24.43,22.35-36.5,26.27-41.75c9.81-15.59,19.68-30.53,31.09-44.83,6.26-7.85,18.25-3.01,37.04-11.19,21.84-9.5,19.38-1.04,21.22-1.76l2.32-.91c4.04-1.58,3.01,3.77,4.14,5.16,4.22,5.19,8.33,10.53,9.25,17.8,1.57,12.43,1.94,24.6,2.24,37.23l.55,23.15,1.29,61.76.71,15.14c.79,16.81,1.68,33.15,1.4,49.97-.12,6.84-.67,13.25-.24,20.07.45,7.24-1.66,17.13-7.97,19.55-3.32,1.27-1.42-10.68-6.17-14.74.84,10.9-2.41,13.63-3.3,25.3-5.18,2.32-9.25-7.01-11.17-11.33l-.66,7.84c-2.81-2.89-3.72-4.76-5.3-7.83l-2.49-4.85-.74-16.15-1.99,14.98-2.39,11.94c-1.52,1.63-7.13.87-9.06-.9-4.39-12.66-6.67-25.49-7.03-38.77l-.73-27.05c-4.15,1.23-7.32,2.21-10.93,3.43l-52.11,17.63ZM626.46,1514.15l.94-37.04-.5-30.66-23.41,32.91c-12.45,17.5-23.28,34.75-35.06,54.47l58.03-19.68Z"/>
        <path class="cls-1" d="M626.46,1514.15l-58.03,19.68c11.78-19.72,22.61-36.97,35.06-54.47l23.41-32.91.5,30.66-.94,37.04Z"/>
      </g>
      <path class="cls-1" d="M1627.76,1402.48l-48.64,11.55,22.42-34.57,20.3-31.61,13.47-18.6.83,28.79c.14,4.94-.29,10.1-.6,14.93l1.6,27.69-9.39,1.83Z"/>
      <g>
        <path d="M599.67,1349.4l-3.17.24c-2.16.16,1.21.41,1.46,7.45.04,1.01-2.99,2.5-3.84,1.79l-12.7-10.61-.02,7.64c-13.51-3.33-20.64-21.04-29.36-32.08l-36.41,11.55c-32.25,10.23-85.1-4.05-89.58-38.3-1.83-14.03-1.89-27.66,1.91-41.07,4.65-16.43,9.71-32.1,17.69-47.3,13.82-26.35,33.53-47.77,55.9-67.03,12.33-10.61,19.84-15.2,34.65-22.39,27.4-13.29,66.51-13.03,87.45,11.86,7.46,8.86,13.95,18.96,17.07,30.01,5.92,21.02-2.65,48.86-9.65,69.08-8.71,25.17-24.91,44.98-41.28,65.53l23.12,31.32-1.67,2.12c-.53.67,1.32,3.36,1.55,4.27l4.17,16.36c.14.53-.04,2.05-.17,2.44-.2.59-2.46.85-3.01.47l-8.22-5.81-8.2-4.77c-1.69,1.63-.44,4.5,2.28,7.27ZM529.15,1254.84c9.49-4.45.48-13.39,5.36-15.76.87-.42,2.92.96,3.5,1.77l8.86,12.47c-.06-6.12-11.66-13.58-2.54-20.81,4.41,8.97,9.26,16.85,15.94,22.84,13.63-16.86,20.74-35.46,24.57-55.66,2.98-15.7,6.04-38.82-7.59-50.94-10.63-4.11-32,11.52-39.02,18.45-16.57,16.37-30.17,34.39-41.41,54.68-5.39,9.72-8.73,19.6-11.85,30.03-3.6,12.06-4.72,34.32,11.96,35.53,8.9.65,18.15.57,26.34-3.32l-7.6-17.88c-.75-1.76.04-5.94.64-7.72l2.6-7.81c4.85,2.83,5.83-2.6,10.22,4.12Z"/>
        <path class="cls-1" d="M529.15,1254.84c-4.39-6.72-5.38-1.29-10.22-4.12l-2.6,7.81c-.6,1.78-1.38,5.96-.64,7.72l7.6,17.88c-8.19,3.89-17.44,3.97-26.34,3.32-16.68-1.21-15.56-23.48-11.96-35.53,3.12-10.43,6.46-20.31,11.85-30.03,11.24-20.29,24.84-38.32,41.41-54.68,7.02-6.93,28.38-22.56,39.02-18.45,13.63,12.12,10.56,35.24,7.59,50.94-3.83,20.2-10.95,38.81-24.57,55.66-6.68-5.99-11.53-13.88-15.94-22.84-9.12,7.23,2.48,14.69,2.54,20.81l-8.86-12.47c-.58-.82-2.64-2.2-3.5-1.77-4.88,2.38,4.13,11.31-5.36,15.76Z"/>
      </g>
    </g>
  </g>
</svg>